<?xml version="1.0" encoding="utf-8" standalone="no"?>
<!DOCTYPE svg PUBLIC "-//W3C//DTD SVG 1.1//EN"
  "http://www.w3.org/Graphics/SVG/1.1/DTD/svg11.dtd">
<svg xmlns:xlink="http://www.w3.org/1999/xlink" width="334.770293pt" height="276.755973pt" viewBox="0 0 334.770293 276.755973" xmlns="http://www.w3.org/2000/svg" version="1.1">
 <metadata>
  <rdf:RDF xmlns:dc="http://purl.org/dc/elements/1.1/" xmlns:cc="http://creativecommons.org/ns#" xmlns:rdf="http://www.w3.org/1999/02/22-rdf-syntax-ns#">
   <cc:Work>
    <dc:type rdf:resource="http://purl.org/dc/dcmitype/StillImage"/>
    <dc:date>2026-04-27T16:11:01.641398</dc:date>
    <dc:format>image/svg+xml</dc:format>
    <dc:creator>
     <cc:Agent>
      <dc:title>Matplotlib v3.10.8, https://matplotlib.org/</dc:title>
     </cc:Agent>
    </dc:creator>
   </cc:Work>
  </rdf:RDF>
 </metadata>
 <defs>
  <style type="text/css">*{stroke-linejoin: round; stroke-linecap: butt}</style>
 </defs>
 <g id="figure_1">
  <g id="patch_1">
   <path d="M 0 276.755973 
L 334.770293 276.755973 
L 334.770293 0 
L 0 0 
z
" style="fill: #ffffff"/>
  </g>
  <g id="axes_1">
   <g id="patch_2">
    <path d="M 39.632813 242.103161 
L 327.570293 242.103161 
L 327.570293 20.038594 
L 39.632813 20.038594 
z
" style="fill: #ffffff"/>
   </g>
   <g id="matplotlib.axis_1">
    <g id="xtick_1">
     <g id="line2d_1">
      <defs>
       <path id="mcd832c68bf" d="M 0 0 
L 0 3.5 
" style="stroke: #000000; stroke-width: 0.8"/>
      </defs>
      <g>
       <use xlink:href="#mcd832c68bf" x="52.72088" y="242.103161" style="stroke: #000000; stroke-width: 0.8"/>
      </g>
     </g>
     <g id="text_1">
      <!-- 0 -->
      <g transform="translate(50.17588 255.181911) scale(0.08 -0.08)">
       <defs>
        <path id="DejaVuSans-30" d="M 2034 4250 
Q 1547 4250 1301 3770 
Q 1056 3291 1056 2328 
Q 1056 1369 1301 889 
Q 1547 409 2034 409 
Q 2525 409 2770 889 
Q 3016 1369 3016 2328 
Q 3016 3291 2770 3770 
Q 2525 4250 2034 4250 
z
M 2034 4750 
Q 2819 4750 3233 4129 
Q 3647 3509 3647 2328 
Q 3647 1150 3233 529 
Q 2819 -91 2034 -91 
Q 1250 -91 836 529 
Q 422 1150 422 2328 
Q 422 3509 836 4129 
Q 1250 4750 2034 4750 
z
" transform="scale(0.015625)"/>
       </defs>
       <use xlink:href="#DejaVuSans-30"/>
      </g>
     </g>
    </g>
    <g id="xtick_2">
     <g id="line2d_2">
      <g>
       <use xlink:href="#mcd832c68bf" x="88.598257" y="242.103161" style="stroke: #000000; stroke-width: 0.8"/>
      </g>
     </g>
     <g id="text_2">
      <!-- 250 -->
      <g transform="translate(80.963257 255.181911) scale(0.08 -0.08)">
       <defs>
        <path id="DejaVuSans-32" d="M 1228 531 
L 3431 531 
L 3431 0 
L 469 0 
L 469 531 
Q 828 903 1448 1529 
Q 2069 2156 2228 2338 
Q 2531 2678 2651 2914 
Q 2772 3150 2772 3378 
Q 2772 3750 2511 3984 
Q 2250 4219 1831 4219 
Q 1534 4219 1204 4116 
Q 875 4013 500 3803 
L 500 4441 
Q 881 4594 1212 4672 
Q 1544 4750 1819 4750 
Q 2544 4750 2975 4387 
Q 3406 4025 3406 3419 
Q 3406 3131 3298 2873 
Q 3191 2616 2906 2266 
Q 2828 2175 2409 1742 
Q 1991 1309 1228 531 
z
" transform="scale(0.015625)"/>
        <path id="DejaVuSans-35" d="M 691 4666 
L 3169 4666 
L 3169 4134 
L 1269 4134 
L 1269 2991 
Q 1406 3038 1543 3061 
Q 1681 3084 1819 3084 
Q 2600 3084 3056 2656 
Q 3513 2228 3513 1497 
Q 3513 744 3044 326 
Q 2575 -91 1722 -91 
Q 1428 -91 1123 -41 
Q 819 9 494 109 
L 494 744 
Q 775 591 1075 516 
Q 1375 441 1709 441 
Q 2250 441 2565 725 
Q 2881 1009 2881 1497 
Q 2881 1984 2565 2268 
Q 2250 2553 1709 2553 
Q 1456 2553 1204 2497 
Q 953 2441 691 2322 
L 691 4666 
z
" transform="scale(0.015625)"/>
       </defs>
       <use xlink:href="#DejaVuSans-32"/>
       <use xlink:href="#DejaVuSans-35" transform="translate(63.623047 0)"/>
       <use xlink:href="#DejaVuSans-30" transform="translate(127.246094 0)"/>
      </g>
     </g>
    </g>
    <g id="xtick_3">
     <g id="line2d_3">
      <g>
       <use xlink:href="#mcd832c68bf" x="124.475635" y="242.103161" style="stroke: #000000; stroke-width: 0.8"/>
      </g>
     </g>
     <g id="text_3">
      <!-- 500 -->
      <g transform="translate(116.840635 255.181911) scale(0.08 -0.08)">
       <use xlink:href="#DejaVuSans-35"/>
       <use xlink:href="#DejaVuSans-30" transform="translate(63.623047 0)"/>
       <use xlink:href="#DejaVuSans-30" transform="translate(127.246094 0)"/>
      </g>
     </g>
    </g>
    <g id="xtick_4">
     <g id="line2d_4">
      <g>
       <use xlink:href="#mcd832c68bf" x="160.353012" y="242.103161" style="stroke: #000000; stroke-width: 0.8"/>
      </g>
     </g>
     <g id="text_4">
      <!-- 750 -->
      <g transform="translate(152.718012 255.181911) scale(0.08 -0.08)">
       <defs>
        <path id="DejaVuSans-37" d="M 525 4666 
L 3525 4666 
L 3525 4397 
L 1831 0 
L 1172 0 
L 2766 4134 
L 525 4134 
L 525 4666 
z
" transform="scale(0.015625)"/>
       </defs>
       <use xlink:href="#DejaVuSans-37"/>
       <use xlink:href="#DejaVuSans-35" transform="translate(63.623047 0)"/>
       <use xlink:href="#DejaVuSans-30" transform="translate(127.246094 0)"/>
      </g>
     </g>
    </g>
    <g id="xtick_5">
     <g id="line2d_5">
      <g>
       <use xlink:href="#mcd832c68bf" x="196.23039" y="242.103161" style="stroke: #000000; stroke-width: 0.8"/>
      </g>
     </g>
     <g id="text_5">
      <!-- 1000 -->
      <g transform="translate(186.05039 255.181911) scale(0.08 -0.08)">
       <defs>
        <path id="DejaVuSans-31" d="M 794 531 
L 1825 531 
L 1825 4091 
L 703 3866 
L 703 4441 
L 1819 4666 
L 2450 4666 
L 2450 531 
L 3481 531 
L 3481 0 
L 794 0 
L 794 531 
z
" transform="scale(0.015625)"/>
       </defs>
       <use xlink:href="#DejaVuSans-31"/>
       <use xlink:href="#DejaVuSans-30" transform="translate(63.623047 0)"/>
       <use xlink:href="#DejaVuSans-30" transform="translate(127.246094 0)"/>
       <use xlink:href="#DejaVuSans-30" transform="translate(190.869141 0)"/>
      </g>
     </g>
    </g>
    <g id="xtick_6">
     <g id="line2d_6">
      <g>
       <use xlink:href="#mcd832c68bf" x="232.107767" y="242.103161" style="stroke: #000000; stroke-width: 0.8"/>
      </g>
     </g>
     <g id="text_6">
      <!-- 1250 -->
      <g transform="translate(221.927767 255.181911) scale(0.08 -0.08)">
       <use xlink:href="#DejaVuSans-31"/>
       <use xlink:href="#DejaVuSans-32" transform="translate(63.623047 0)"/>
       <use xlink:href="#DejaVuSans-35" transform="translate(127.246094 0)"/>
       <use xlink:href="#DejaVuSans-30" transform="translate(190.869141 0)"/>
      </g>
     </g>
    </g>
    <g id="xtick_7">
     <g id="line2d_7">
      <g>
       <use xlink:href="#mcd832c68bf" x="267.985144" y="242.103161" style="stroke: #000000; stroke-width: 0.8"/>
      </g>
     </g>
     <g id="text_7">
      <!-- 1500 -->
      <g transform="translate(257.805144 255.181911) scale(0.08 -0.08)">
       <use xlink:href="#DejaVuSans-31"/>
       <use xlink:href="#DejaVuSans-35" transform="translate(63.623047 0)"/>
       <use xlink:href="#DejaVuSans-30" transform="translate(127.246094 0)"/>
       <use xlink:href="#DejaVuSans-30" transform="translate(190.869141 0)"/>
      </g>
     </g>
    </g>
    <g id="xtick_8">
     <g id="line2d_8">
      <g>
       <use xlink:href="#mcd832c68bf" x="303.862522" y="242.103161" style="stroke: #000000; stroke-width: 0.8"/>
      </g>
     </g>
     <g id="text_8">
      <!-- 1750 -->
      <g transform="translate(293.682522 255.181911) scale(0.08 -0.08)">
       <use xlink:href="#DejaVuSans-31"/>
       <use xlink:href="#DejaVuSans-37" transform="translate(63.623047 0)"/>
       <use xlink:href="#DejaVuSans-35" transform="translate(127.246094 0)"/>
       <use xlink:href="#DejaVuSans-30" transform="translate(190.869141 0)"/>
      </g>
     </g>
    </g>
    <g id="text_9">
     <!-- Time (days) -->
     <g transform="translate(157.027646 267.684254) scale(0.09 -0.09)">
      <defs>
       <path id="DejaVuSans-54" d="M -19 4666 
L 3928 4666 
L 3928 4134 
L 2272 4134 
L 2272 0 
L 1638 0 
L 1638 4134 
L -19 4134 
L -19 4666 
z
" transform="scale(0.015625)"/>
       <path id="DejaVuSans-69" d="M 603 3500 
L 1178 3500 
L 1178 0 
L 603 0 
L 603 3500 
z
M 603 4863 
L 1178 4863 
L 1178 4134 
L 603 4134 
L 603 4863 
z
" transform="scale(0.015625)"/>
       <path id="DejaVuSans-6d" d="M 3328 2828 
Q 3544 3216 3844 3400 
Q 4144 3584 4550 3584 
Q 5097 3584 5394 3201 
Q 5691 2819 5691 2113 
L 5691 0 
L 5113 0 
L 5113 2094 
Q 5113 2597 4934 2840 
Q 4756 3084 4391 3084 
Q 3944 3084 3684 2787 
Q 3425 2491 3425 1978 
L 3425 0 
L 2847 0 
L 2847 2094 
Q 2847 2600 2669 2842 
Q 2491 3084 2119 3084 
Q 1678 3084 1418 2786 
Q 1159 2488 1159 1978 
L 1159 0 
L 581 0 
L 581 3500 
L 1159 3500 
L 1159 2956 
Q 1356 3278 1631 3431 
Q 1906 3584 2284 3584 
Q 2666 3584 2933 3390 
Q 3200 3197 3328 2828 
z
" transform="scale(0.015625)"/>
       <path id="DejaVuSans-65" d="M 3597 1894 
L 3597 1613 
L 953 1613 
Q 991 1019 1311 708 
Q 1631 397 2203 397 
Q 2534 397 2845 478 
Q 3156 559 3463 722 
L 3463 178 
Q 3153 47 2828 -22 
Q 2503 -91 2169 -91 
Q 1331 -91 842 396 
Q 353 884 353 1716 
Q 353 2575 817 3079 
Q 1281 3584 2069 3584 
Q 2775 3584 3186 3129 
Q 3597 2675 3597 1894 
z
M 3022 2063 
Q 3016 2534 2758 2815 
Q 2500 3097 2075 3097 
Q 1594 3097 1305 2825 
Q 1016 2553 972 2059 
L 3022 2063 
z
" transform="scale(0.015625)"/>
       <path id="DejaVuSans-20" transform="scale(0.015625)"/>
       <path id="DejaVuSans-28" d="M 1984 4856 
Q 1566 4138 1362 3434 
Q 1159 2731 1159 2009 
Q 1159 1288 1364 580 
Q 1569 -128 1984 -844 
L 1484 -844 
Q 1016 -109 783 600 
Q 550 1309 550 2009 
Q 550 2706 781 3412 
Q 1013 4119 1484 4856 
L 1984 4856 
z
" transform="scale(0.015625)"/>
       <path id="DejaVuSans-64" d="M 2906 2969 
L 2906 4863 
L 3481 4863 
L 3481 0 
L 2906 0 
L 2906 525 
Q 2725 213 2448 61 
Q 2172 -91 1784 -91 
Q 1150 -91 751 415 
Q 353 922 353 1747 
Q 353 2572 751 3078 
Q 1150 3584 1784 3584 
Q 2172 3584 2448 3432 
Q 2725 3281 2906 2969 
z
M 947 1747 
Q 947 1113 1208 752 
Q 1469 391 1925 391 
Q 2381 391 2643 752 
Q 2906 1113 2906 1747 
Q 2906 2381 2643 2742 
Q 2381 3103 1925 3103 
Q 1469 3103 1208 2742 
Q 947 2381 947 1747 
z
" transform="scale(0.015625)"/>
       <path id="DejaVuSans-61" d="M 2194 1759 
Q 1497 1759 1228 1600 
Q 959 1441 959 1056 
Q 959 750 1161 570 
Q 1363 391 1709 391 
Q 2188 391 2477 730 
Q 2766 1069 2766 1631 
L 2766 1759 
L 2194 1759 
z
M 3341 1997 
L 3341 0 
L 2766 0 
L 2766 531 
Q 2569 213 2275 61 
Q 1981 -91 1556 -91 
Q 1019 -91 701 211 
Q 384 513 384 1019 
Q 384 1609 779 1909 
Q 1175 2209 1959 2209 
L 2766 2209 
L 2766 2266 
Q 2766 2663 2505 2880 
Q 2244 3097 1772 3097 
Q 1472 3097 1187 3025 
Q 903 2953 641 2809 
L 641 3341 
Q 956 3463 1253 3523 
Q 1550 3584 1831 3584 
Q 2591 3584 2966 3190 
Q 3341 2797 3341 1997 
z
" transform="scale(0.015625)"/>
       <path id="DejaVuSans-79" d="M 2059 -325 
Q 1816 -950 1584 -1140 
Q 1353 -1331 966 -1331 
L 506 -1331 
L 506 -850 
L 844 -850 
Q 1081 -850 1212 -737 
Q 1344 -625 1503 -206 
L 1606 56 
L 191 3500 
L 800 3500 
L 1894 763 
L 2988 3500 
L 3597 3500 
L 2059 -325 
z
" transform="scale(0.015625)"/>
       <path id="DejaVuSans-73" d="M 2834 3397 
L 2834 2853 
Q 2591 2978 2328 3040 
Q 2066 3103 1784 3103 
Q 1356 3103 1142 2972 
Q 928 2841 928 2578 
Q 928 2378 1081 2264 
Q 1234 2150 1697 2047 
L 1894 2003 
Q 2506 1872 2764 1633 
Q 3022 1394 3022 966 
Q 3022 478 2636 193 
Q 2250 -91 1575 -91 
Q 1294 -91 989 -36 
Q 684 19 347 128 
L 347 722 
Q 666 556 975 473 
Q 1284 391 1588 391 
Q 1994 391 2212 530 
Q 2431 669 2431 922 
Q 2431 1156 2273 1281 
Q 2116 1406 1581 1522 
L 1381 1569 
Q 847 1681 609 1914 
Q 372 2147 372 2553 
Q 372 3047 722 3315 
Q 1072 3584 1716 3584 
Q 2034 3584 2315 3537 
Q 2597 3491 2834 3397 
z
" transform="scale(0.015625)"/>
       <path id="DejaVuSans-29" d="M 513 4856 
L 1013 4856 
Q 1481 4119 1714 3412 
Q 1947 2706 1947 2009 
Q 1947 1309 1714 600 
Q 1481 -109 1013 -844 
L 513 -844 
Q 928 -128 1133 580 
Q 1338 1288 1338 2009 
Q 1338 2731 1133 3434 
Q 928 4138 513 4856 
z
" transform="scale(0.015625)"/>
      </defs>
      <use xlink:href="#DejaVuSans-54"/>
      <use xlink:href="#DejaVuSans-69" transform="translate(57.958984 0)"/>
      <use xlink:href="#DejaVuSans-6d" transform="translate(85.742188 0)"/>
      <use xlink:href="#DejaVuSans-65" transform="translate(183.154297 0)"/>
      <use xlink:href="#DejaVuSans-20" transform="translate(244.677734 0)"/>
      <use xlink:href="#DejaVuSans-28" transform="translate(276.464844 0)"/>
      <use xlink:href="#DejaVuSans-64" transform="translate(315.478516 0)"/>
      <use xlink:href="#DejaVuSans-61" transform="translate(378.955078 0)"/>
      <use xlink:href="#DejaVuSans-79" transform="translate(440.234375 0)"/>
      <use xlink:href="#DejaVuSans-73" transform="translate(499.414062 0)"/>
      <use xlink:href="#DejaVuSans-29" transform="translate(551.513672 0)"/>
     </g>
    </g>
   </g>
   <g id="matplotlib.axis_2">
    <g id="ytick_1">
     <g id="line2d_9">
      <defs>
       <path id="mafcf9921e5" d="M 0 0 
L -3.5 0 
" style="stroke: #000000; stroke-width: 0.8"/>
      </defs>
      <g>
       <use xlink:href="#mafcf9921e5" x="39.632813" y="242.103161" style="stroke: #000000; stroke-width: 0.8"/>
      </g>
     </g>
     <g id="text_10">
      <!-- 0.0 -->
      <g transform="translate(19.910313 245.142536) scale(0.08 -0.08)">
       <defs>
        <path id="DejaVuSans-2e" d="M 684 794 
L 1344 794 
L 1344 0 
L 684 0 
L 684 794 
z
" transform="scale(0.015625)"/>
       </defs>
       <use xlink:href="#DejaVuSans-30"/>
       <use xlink:href="#DejaVuSans-2e" transform="translate(63.623047 0)"/>
       <use xlink:href="#DejaVuSans-30" transform="translate(95.410156 0)"/>
      </g>
     </g>
    </g>
    <g id="ytick_2">
     <g id="line2d_10">
      <g>
       <use xlink:href="#mafcf9921e5" x="39.632813" y="197.690247" style="stroke: #000000; stroke-width: 0.8"/>
      </g>
     </g>
     <g id="text_11">
      <!-- 0.2 -->
      <g transform="translate(19.910313 200.729622) scale(0.08 -0.08)">
       <use xlink:href="#DejaVuSans-30"/>
       <use xlink:href="#DejaVuSans-2e" transform="translate(63.623047 0)"/>
       <use xlink:href="#DejaVuSans-32" transform="translate(95.410156 0)"/>
      </g>
     </g>
    </g>
    <g id="ytick_3">
     <g id="line2d_11">
      <g>
       <use xlink:href="#mafcf9921e5" x="39.632813" y="153.277334" style="stroke: #000000; stroke-width: 0.8"/>
      </g>
     </g>
     <g id="text_12">
      <!-- 0.4 -->
      <g transform="translate(19.910313 156.316709) scale(0.08 -0.08)">
       <defs>
        <path id="DejaVuSans-34" d="M 2419 4116 
L 825 1625 
L 2419 1625 
L 2419 4116 
z
M 2253 4666 
L 3047 4666 
L 3047 1625 
L 3713 1625 
L 3713 1100 
L 3047 1100 
L 3047 0 
L 2419 0 
L 2419 1100 
L 313 1100 
L 313 1709 
L 2253 4666 
z
" transform="scale(0.015625)"/>
       </defs>
       <use xlink:href="#DejaVuSans-30"/>
       <use xlink:href="#DejaVuSans-2e" transform="translate(63.623047 0)"/>
       <use xlink:href="#DejaVuSans-34" transform="translate(95.410156 0)"/>
      </g>
     </g>
    </g>
    <g id="ytick_4">
     <g id="line2d_12">
      <g>
       <use xlink:href="#mafcf9921e5" x="39.632813" y="108.864421" style="stroke: #000000; stroke-width: 0.8"/>
      </g>
     </g>
     <g id="text_13">
      <!-- 0.6 -->
      <g transform="translate(19.910313 111.903796) scale(0.08 -0.08)">
       <defs>
        <path id="DejaVuSans-36" d="M 2113 2584 
Q 1688 2584 1439 2293 
Q 1191 2003 1191 1497 
Q 1191 994 1439 701 
Q 1688 409 2113 409 
Q 2538 409 2786 701 
Q 3034 994 3034 1497 
Q 3034 2003 2786 2293 
Q 2538 2584 2113 2584 
z
M 3366 4563 
L 3366 3988 
Q 3128 4100 2886 4159 
Q 2644 4219 2406 4219 
Q 1781 4219 1451 3797 
Q 1122 3375 1075 2522 
Q 1259 2794 1537 2939 
Q 1816 3084 2150 3084 
Q 2853 3084 3261 2657 
Q 3669 2231 3669 1497 
Q 3669 778 3244 343 
Q 2819 -91 2113 -91 
Q 1303 -91 875 529 
Q 447 1150 447 2328 
Q 447 3434 972 4092 
Q 1497 4750 2381 4750 
Q 2619 4750 2861 4703 
Q 3103 4656 3366 4563 
z
" transform="scale(0.015625)"/>
       </defs>
       <use xlink:href="#DejaVuSans-30"/>
       <use xlink:href="#DejaVuSans-2e" transform="translate(63.623047 0)"/>
       <use xlink:href="#DejaVuSans-36" transform="translate(95.410156 0)"/>
      </g>
     </g>
    </g>
    <g id="ytick_5">
     <g id="line2d_13">
      <g>
       <use xlink:href="#mafcf9921e5" x="39.632813" y="64.451507" style="stroke: #000000; stroke-width: 0.8"/>
      </g>
     </g>
     <g id="text_14">
      <!-- 0.8 -->
      <g transform="translate(19.910313 67.490882) scale(0.08 -0.08)">
       <defs>
        <path id="DejaVuSans-38" d="M 2034 2216 
Q 1584 2216 1326 1975 
Q 1069 1734 1069 1313 
Q 1069 891 1326 650 
Q 1584 409 2034 409 
Q 2484 409 2743 651 
Q 3003 894 3003 1313 
Q 3003 1734 2745 1975 
Q 2488 2216 2034 2216 
z
M 1403 2484 
Q 997 2584 770 2862 
Q 544 3141 544 3541 
Q 544 4100 942 4425 
Q 1341 4750 2034 4750 
Q 2731 4750 3128 4425 
Q 3525 4100 3525 3541 
Q 3525 3141 3298 2862 
Q 3072 2584 2669 2484 
Q 3125 2378 3379 2068 
Q 3634 1759 3634 1313 
Q 3634 634 3220 271 
Q 2806 -91 2034 -91 
Q 1263 -91 848 271 
Q 434 634 434 1313 
Q 434 1759 690 2068 
Q 947 2378 1403 2484 
z
M 1172 3481 
Q 1172 3119 1398 2916 
Q 1625 2713 2034 2713 
Q 2441 2713 2670 2916 
Q 2900 3119 2900 3481 
Q 2900 3844 2670 4047 
Q 2441 4250 2034 4250 
Q 1625 4250 1398 4047 
Q 1172 3844 1172 3481 
z
" transform="scale(0.015625)"/>
       </defs>
       <use xlink:href="#DejaVuSans-30"/>
       <use xlink:href="#DejaVuSans-2e" transform="translate(63.623047 0)"/>
       <use xlink:href="#DejaVuSans-38" transform="translate(95.410156 0)"/>
      </g>
     </g>
    </g>
    <g id="ytick_6">
     <g id="line2d_14">
      <g>
       <use xlink:href="#mafcf9921e5" x="39.632813" y="20.038594" style="stroke: #000000; stroke-width: 0.8"/>
      </g>
     </g>
     <g id="text_15">
      <!-- 1.0 -->
      <g transform="translate(19.910313 23.077969) scale(0.08 -0.08)">
       <use xlink:href="#DejaVuSans-31"/>
       <use xlink:href="#DejaVuSans-2e" transform="translate(63.623047 0)"/>
       <use xlink:href="#DejaVuSans-30" transform="translate(95.410156 0)"/>
      </g>
     </g>
    </g>
    <g id="text_16">
     <!-- Survival probability -->
     <g transform="translate(14.038594 174.652674) rotate(-90) scale(0.09 -0.09)">
      <defs>
       <path id="DejaVuSans-53" d="M 3425 4513 
L 3425 3897 
Q 3066 4069 2747 4153 
Q 2428 4238 2131 4238 
Q 1616 4238 1336 4038 
Q 1056 3838 1056 3469 
Q 1056 3159 1242 3001 
Q 1428 2844 1947 2747 
L 2328 2669 
Q 3034 2534 3370 2195 
Q 3706 1856 3706 1288 
Q 3706 609 3251 259 
Q 2797 -91 1919 -91 
Q 1588 -91 1214 -16 
Q 841 59 441 206 
L 441 856 
Q 825 641 1194 531 
Q 1563 422 1919 422 
Q 2459 422 2753 634 
Q 3047 847 3047 1241 
Q 3047 1584 2836 1778 
Q 2625 1972 2144 2069 
L 1759 2144 
Q 1053 2284 737 2584 
Q 422 2884 422 3419 
Q 422 4038 858 4394 
Q 1294 4750 2059 4750 
Q 2388 4750 2728 4690 
Q 3069 4631 3425 4513 
z
" transform="scale(0.015625)"/>
       <path id="DejaVuSans-75" d="M 544 1381 
L 544 3500 
L 1119 3500 
L 1119 1403 
Q 1119 906 1312 657 
Q 1506 409 1894 409 
Q 2359 409 2629 706 
Q 2900 1003 2900 1516 
L 2900 3500 
L 3475 3500 
L 3475 0 
L 2900 0 
L 2900 538 
Q 2691 219 2414 64 
Q 2138 -91 1772 -91 
Q 1169 -91 856 284 
Q 544 659 544 1381 
z
M 1991 3584 
L 1991 3584 
z
" transform="scale(0.015625)"/>
       <path id="DejaVuSans-72" d="M 2631 2963 
Q 2534 3019 2420 3045 
Q 2306 3072 2169 3072 
Q 1681 3072 1420 2755 
Q 1159 2438 1159 1844 
L 1159 0 
L 581 0 
L 581 3500 
L 1159 3500 
L 1159 2956 
Q 1341 3275 1631 3429 
Q 1922 3584 2338 3584 
Q 2397 3584 2469 3576 
Q 2541 3569 2628 3553 
L 2631 2963 
z
" transform="scale(0.015625)"/>
       <path id="DejaVuSans-76" d="M 191 3500 
L 800 3500 
L 1894 563 
L 2988 3500 
L 3597 3500 
L 2284 0 
L 1503 0 
L 191 3500 
z
" transform="scale(0.015625)"/>
       <path id="DejaVuSans-6c" d="M 603 4863 
L 1178 4863 
L 1178 0 
L 603 0 
L 603 4863 
z
" transform="scale(0.015625)"/>
       <path id="DejaVuSans-70" d="M 1159 525 
L 1159 -1331 
L 581 -1331 
L 581 3500 
L 1159 3500 
L 1159 2969 
Q 1341 3281 1617 3432 
Q 1894 3584 2278 3584 
Q 2916 3584 3314 3078 
Q 3713 2572 3713 1747 
Q 3713 922 3314 415 
Q 2916 -91 2278 -91 
Q 1894 -91 1617 61 
Q 1341 213 1159 525 
z
M 3116 1747 
Q 3116 2381 2855 2742 
Q 2594 3103 2138 3103 
Q 1681 3103 1420 2742 
Q 1159 2381 1159 1747 
Q 1159 1113 1420 752 
Q 1681 391 2138 391 
Q 2594 391 2855 752 
Q 3116 1113 3116 1747 
z
" transform="scale(0.015625)"/>
       <path id="DejaVuSans-6f" d="M 1959 3097 
Q 1497 3097 1228 2736 
Q 959 2375 959 1747 
Q 959 1119 1226 758 
Q 1494 397 1959 397 
Q 2419 397 2687 759 
Q 2956 1122 2956 1747 
Q 2956 2369 2687 2733 
Q 2419 3097 1959 3097 
z
M 1959 3584 
Q 2709 3584 3137 3096 
Q 3566 2609 3566 1747 
Q 3566 888 3137 398 
Q 2709 -91 1959 -91 
Q 1206 -91 779 398 
Q 353 888 353 1747 
Q 353 2609 779 3096 
Q 1206 3584 1959 3584 
z
" transform="scale(0.015625)"/>
       <path id="DejaVuSans-62" d="M 3116 1747 
Q 3116 2381 2855 2742 
Q 2594 3103 2138 3103 
Q 1681 3103 1420 2742 
Q 1159 2381 1159 1747 
Q 1159 1113 1420 752 
Q 1681 391 2138 391 
Q 2594 391 2855 752 
Q 3116 1113 3116 1747 
z
M 1159 2969 
Q 1341 3281 1617 3432 
Q 1894 3584 2278 3584 
Q 2916 3584 3314 3078 
Q 3713 2572 3713 1747 
Q 3713 922 3314 415 
Q 2916 -91 2278 -91 
Q 1894 -91 1617 61 
Q 1341 213 1159 525 
L 1159 0 
L 581 0 
L 581 4863 
L 1159 4863 
L 1159 2969 
z
" transform="scale(0.015625)"/>
       <path id="DejaVuSans-74" d="M 1172 4494 
L 1172 3500 
L 2356 3500 
L 2356 3053 
L 1172 3053 
L 1172 1153 
Q 1172 725 1289 603 
Q 1406 481 1766 481 
L 2356 481 
L 2356 0 
L 1766 0 
Q 1100 0 847 248 
Q 594 497 594 1153 
L 594 3053 
L 172 3053 
L 172 3500 
L 594 3500 
L 594 4494 
L 1172 4494 
z
" transform="scale(0.015625)"/>
      </defs>
      <use xlink:href="#DejaVuSans-53"/>
      <use xlink:href="#DejaVuSans-75" transform="translate(63.476562 0)"/>
      <use xlink:href="#DejaVuSans-72" transform="translate(126.855469 0)"/>
      <use xlink:href="#DejaVuSans-76" transform="translate(167.96875 0)"/>
      <use xlink:href="#DejaVuSans-69" transform="translate(227.148438 0)"/>
      <use xlink:href="#DejaVuSans-76" transform="translate(254.931641 0)"/>
      <use xlink:href="#DejaVuSans-61" transform="translate(314.111328 0)"/>
      <use xlink:href="#DejaVuSans-6c" transform="translate(375.390625 0)"/>
      <use xlink:href="#DejaVuSans-20" transform="translate(403.173828 0)"/>
      <use xlink:href="#DejaVuSans-70" transform="translate(434.960938 0)"/>
      <use xlink:href="#DejaVuSans-72" transform="translate(498.4375 0)"/>
      <use xlink:href="#DejaVuSans-6f" transform="translate(537.300781 0)"/>
      <use xlink:href="#DejaVuSans-62" transform="translate(598.482422 0)"/>
      <use xlink:href="#DejaVuSans-61" transform="translate(661.958984 0)"/>
      <use xlink:href="#DejaVuSans-62" transform="translate(723.238281 0)"/>
      <use xlink:href="#DejaVuSans-69" transform="translate(786.714844 0)"/>
      <use xlink:href="#DejaVuSans-6c" transform="translate(814.498047 0)"/>
      <use xlink:href="#DejaVuSans-69" transform="translate(842.28125 0)"/>
      <use xlink:href="#DejaVuSans-74" transform="translate(870.064453 0)"/>
      <use xlink:href="#DejaVuSans-79" transform="translate(909.273438 0)"/>
     </g>
    </g>
   </g>
   <g id="line2d_15">
    <path d="M 52.72088 20.038594 
L 57.026165 20.038594 
L 57.026165 20.347732 
L 57.169675 20.347732 
L 57.169675 20.914486 
L 58.60477 21.017533 
L 58.60477 21.069056 
L 60.613903 21.172102 
L 60.613903 21.223625 
L 61.33145 21.326671 
L 61.33145 21.429717 
L 61.47496 21.429717 
L 61.47496 22.46018 
L 61.618469 22.46018 
L 61.618469 22.614749 
L 64.775679 22.717795 
L 64.775679 22.769318 
L 65.493226 22.872364 
L 65.493226 22.975411 
L 65.636736 22.975411 
L 65.636736 23.181503 
L 65.780245 23.181503 
L 65.780245 23.645211 
L 65.923755 23.645211 
L 65.923755 24.418057 
L 67.789378 24.46958 
L 67.789378 24.62415 
L 68.219907 24.727196 
L 68.219907 24.778719 
L 68.506926 24.881765 
L 68.506926 24.933288 
L 69.367983 25.036335 
L 69.367983 25.087858 
L 69.942021 25.139381 
L 69.942021 25.448519 
L 70.08553 25.448519 
L 70.08553 25.603089 
L 70.22904 25.603089 
L 70.22904 27.045736 
L 70.372549 27.045736 
L 70.372549 27.767059 
L 70.946588 27.870105 
L 70.946588 27.921628 
L 71.520626 28.024674 
L 71.520626 28.076198 
L 71.951154 28.127721 
L 71.951154 28.230767 
L 72.525192 28.333813 
L 72.525192 28.385336 
L 72.812211 28.436859 
L 72.812211 28.539905 
L 72.955721 28.539905 
L 72.955721 28.745998 
L 73.816778 28.849044 
L 73.816778 29.003613 
L 74.247306 29.10666 
L 74.247306 29.261229 
L 74.390816 29.261229 
L 74.390816 30.188645 
L 74.534325 30.188645 
L 74.534325 30.497783 
L 74.677835 30.497783 
L 74.677835 33.228508 
L 75.251873 33.331554 
L 75.251873 33.4346 
L 75.682401 33.537646 
L 75.682401 33.692216 
L 75.96942 33.795262 
L 75.96942 33.846785 
L 76.256439 33.898308 
L 76.256439 34.1044 
L 76.686968 34.207447 
L 76.686968 34.310493 
L 76.973987 34.362016 
L 76.973987 34.516585 
L 77.691534 34.619631 
L 77.691534 34.671155 
L 77.978553 34.671155 
L 77.978553 34.825724 
L 78.122063 34.825724 
L 78.122063 35.031816 
L 78.696101 35.083339 
L 78.696101 35.907709 
L 78.839611 35.907709 
L 78.839611 36.680555 
L 78.98312 36.680555 
L 78.98312 37.556448 
L 79.12663 37.556448 
L 79.12663 38.793003 
L 79.557158 38.844526 
L 79.557158 39.102141 
L 79.700668 39.102141 
L 79.700668 39.256711 
L 80.274706 39.308234 
L 80.274706 39.514326 
L 80.705234 39.617372 
L 80.705234 39.720418 
L 81.135763 39.823465 
L 81.135763 39.926511 
L 81.566291 39.926511 
L 81.566291 40.132603 
L 81.85331 40.235649 
L 81.85331 40.287173 
L 82.283839 40.390219 
L 82.283839 40.441742 
L 82.427348 40.441742 
L 82.427348 40.647834 
L 82.857877 40.750881 
L 82.857877 40.90545 
L 83.001386 40.90545 
L 83.001386 41.111542 
L 83.144896 41.111542 
L 83.144896 43.120943 
L 83.288405 43.120943 
L 83.288405 43.73922 
L 83.431915 43.73922 
L 83.431915 45.336437 
L 83.575424 45.336437 
L 83.575424 45.954714 
L 83.862443 46.006237 
L 83.862443 46.160806 
L 84.005953 46.160806 
L 84.005953 46.315375 
L 84.292972 46.315375 
L 84.292972 46.469945 
L 84.436481 46.469945 
L 84.436481 46.676037 
L 84.7235 46.72756 
L 84.7235 46.933653 
L 85.441048 47.036699 
L 85.441048 47.294314 
L 85.728067 47.345837 
L 85.728067 47.603453 
L 85.871577 47.603453 
L 85.871577 47.758022 
L 86.015086 47.758022 
L 86.015086 47.912592 
L 86.302105 48.015638 
L 86.302105 48.170207 
L 86.732634 48.273253 
L 86.732634 48.324776 
L 86.876143 48.324776 
L 86.876143 48.530869 
L 87.306672 48.633915 
L 87.306672 48.736961 
L 87.450181 48.736961 
L 87.450181 49.612854 
L 87.593691 49.612854 
L 87.593691 51.622255 
L 87.7372 51.622255 
L 87.7372 53.37404 
L 87.88071 53.37404 
L 87.88071 54.713641 
L 88.024219 54.713641 
L 88.024219 54.86821 
L 88.167729 54.86821 
L 88.167729 55.02278 
L 88.311238 55.02278 
L 88.311238 55.177349 
L 88.598257 55.280395 
L 88.598257 55.383441 
L 88.885276 55.486487 
L 88.885276 55.589534 
L 89.172295 55.641057 
L 89.172295 55.744103 
L 89.602824 55.795626 
L 89.602824 55.898672 
L 90.033352 55.950195 
L 90.033352 56.156288 
L 90.320371 56.259334 
L 90.320371 56.36238 
L 90.60739 56.413903 
L 90.60739 56.568473 
L 90.894409 56.671519 
L 90.894409 56.723042 
L 91.181428 56.774565 
L 91.181428 56.929134 
L 91.324938 56.929134 
L 91.324938 57.083704 
L 91.611957 57.135227 
L 91.611957 57.341319 
L 91.898976 57.392842 
L 91.898976 60.123567 
L 92.042485 60.123567 
L 92.042485 61.66926 
L 92.185995 61.66926 
L 92.185995 62.905814 
L 92.329504 62.905814 
L 92.329504 63.524091 
L 92.616523 63.575614 
L 92.616523 63.730184 
L 92.760033 63.730184 
L 92.760033 63.884753 
L 92.903543 63.884753 
L 92.903543 64.039322 
L 93.334071 64.142369 
L 93.334071 64.193892 
L 93.7646 64.296938 
L 93.7646 64.348461 
L 94.195128 64.399984 
L 94.195128 64.50303 
L 94.912676 64.554553 
L 94.912676 64.760646 
L 95.343204 64.812169 
L 95.343204 65.018261 
L 95.486714 65.018261 
L 95.486714 65.172831 
L 95.917242 65.275877 
L 95.917242 65.585015 
L 96.204261 65.636538 
L 96.204261 66.357862 
L 96.347771 66.357862 
L 96.347771 68.727925 
L 96.49128 68.727925 
L 96.49128 70.016002 
L 96.63479 70.016002 
L 96.63479 71.097987 
L 96.778299 71.097987 
L 96.778299 71.30408 
L 97.208828 71.407126 
L 97.208828 71.510172 
L 97.352337 71.510172 
L 97.352337 71.664741 
L 97.639356 71.767788 
L 97.639356 71.819311 
L 97.782866 71.819311 
L 97.782866 72.076926 
L 98.069885 72.179972 
L 98.069885 72.283019 
L 98.213394 72.283019 
L 98.213394 72.437588 
L 98.356904 72.437588 
L 98.356904 72.592157 
L 98.787432 72.64368 
L 98.787432 72.746726 
L 98.930942 72.746726 
L 98.930942 73.004342 
L 99.074451 73.004342 
L 99.074451 73.210434 
L 99.50498 73.313481 
L 99.50498 73.519573 
L 99.791999 73.622619 
L 99.791999 73.828712 
L 100.079018 73.931758 
L 100.079018 74.034804 
L 100.509547 74.086327 
L 100.509547 74.292419 
L 100.653056 74.292419 
L 100.653056 76.662482 
L 100.796566 76.662482 
L 100.796566 79.599299 
L 100.940075 79.599299 
L 100.940075 80.217576 
L 101.083585 80.217576 
L 101.083585 80.681284 
L 101.370604 80.732807 
L 101.370604 80.835853 
L 101.657623 80.835853 
L 101.657623 80.990423 
L 101.944642 81.041946 
L 101.944642 81.144992 
L 102.088151 81.144992 
L 102.088151 81.402607 
L 102.231661 81.402607 
L 102.231661 81.6087 
L 102.37517 81.6087 
L 102.37517 81.814792 
L 102.662189 81.866315 
L 102.662189 81.969362 
L 102.949208 82.072408 
L 102.949208 82.226977 
L 103.379737 82.330023 
L 103.379737 82.484593 
L 103.523246 82.484593 
L 103.523246 82.639162 
L 103.666756 82.639162 
L 103.666756 82.896777 
L 103.810265 82.896777 
L 103.810265 83.051347 
L 103.953775 83.051347 
L 103.953775 83.205916 
L 104.240794 83.257439 
L 104.240794 83.412008 
L 104.671322 83.515055 
L 104.671322 83.669624 
L 104.814832 83.669624 
L 104.814832 83.978763 
L 104.958341 83.978763 
L 104.958341 84.133332 
L 105.101851 84.133332 
L 105.101851 87.894518 
L 105.24536 87.894518 
L 105.24536 89.337165 
L 105.532379 89.388688 
L 105.532379 89.491734 
L 105.819398 89.594781 
L 105.819398 89.697827 
L 105.962908 89.697827 
L 105.962908 90.058489 
L 106.106417 90.058489 
L 106.106417 90.264581 
L 106.393436 90.367627 
L 106.393436 90.522196 
L 106.823965 90.625243 
L 106.823965 90.728289 
L 107.110984 90.779812 
L 107.110984 91.037427 
L 107.398003 91.140474 
L 107.398003 91.191997 
L 107.541513 91.191997 
L 107.541513 91.398089 
L 107.685022 91.398089 
L 107.685022 91.655705 
L 107.972041 91.707228 
L 107.972041 91.810274 
L 108.115551 91.810274 
L 108.115551 91.964843 
L 108.25906 91.964843 
L 108.25906 92.170936 
L 108.546079 92.273982 
L 108.546079 92.325505 
L 108.689589 92.325505 
L 108.689589 92.634644 
L 108.976608 92.686167 
L 108.976608 92.840736 
L 109.120117 92.840736 
L 109.120117 93.149875 
L 109.263627 93.149875 
L 109.263627 93.716629 
L 109.407136 93.716629 
L 109.407136 94.953183 
L 109.550646 94.953183 
L 109.550646 97.993046 
L 109.694155 97.993046 
L 109.694155 98.817416 
L 109.981174 98.920462 
L 109.981174 99.075031 
L 110.124684 99.075031 
L 110.124684 99.229601 
L 110.411703 99.281124 
L 110.411703 99.435693 
L 110.555212 99.435693 
L 110.555212 99.590262 
L 110.842231 99.641785 
L 110.842231 99.847878 
L 110.985741 99.847878 
L 110.985741 100.05397 
L 111.416269 100.105493 
L 111.416269 100.311586 
L 111.846798 100.414632 
L 111.846798 100.620724 
L 112.133817 100.672247 
L 112.133817 100.87834 
L 112.707855 100.981386 
L 112.707855 101.084432 
L 112.851364 101.084432 
L 112.851364 101.445094 
L 112.994874 101.445094 
L 112.994874 101.805756 
L 113.138383 101.805756 
L 113.138383 101.960325 
L 113.281893 101.960325 
L 113.281893 102.114894 
L 113.568912 102.114894 
L 113.568912 102.733171 
L 113.712421 102.733171 
L 113.712421 103.454495 
L 113.855931 103.454495 
L 113.855931 105.36085 
L 113.99944 105.36085 
L 113.99944 106.70045 
L 114.14295 106.70045 
L 114.14295 106.85502 
L 114.286459 106.85502 
L 114.286459 107.112635 
L 114.573478 107.164158 
L 114.573478 107.267204 
L 114.860497 107.370251 
L 114.860497 107.52482 
L 115.004007 107.52482 
L 115.004007 107.679389 
L 115.291026 107.782435 
L 115.291026 107.937005 
L 115.434536 107.937005 
L 115.434536 108.143097 
L 115.865064 108.246143 
L 115.865064 108.34919 
L 116.152083 108.400713 
L 116.152083 108.555282 
L 116.295593 108.555282 
L 116.295593 108.761374 
L 116.439102 108.761374 
L 116.439102 108.915944 
L 116.869631 108.915944 
L 116.869631 109.122036 
L 117.300159 109.173559 
L 117.300159 109.276605 
L 117.587178 109.379652 
L 117.587178 109.534221 
L 117.874197 109.637267 
L 117.874197 109.946406 
L 118.017707 109.946406 
L 118.017707 110.461637 
L 118.161216 110.461637 
L 118.161216 111.801237 
L 118.304726 111.801237 
L 118.304726 113.759115 
L 118.448235 113.759115 
L 118.448235 114.738054 
L 118.735254 114.8411 
L 118.735254 114.99567 
L 119.165783 115.098716 
L 119.165783 115.201762 
L 119.452802 115.304808 
L 119.452802 115.459377 
L 120.02684 115.562424 
L 120.02684 115.716993 
L 120.170349 115.716993 
L 120.170349 115.871562 
L 120.457368 115.974609 
L 120.457368 116.026132 
L 120.600878 116.026132 
L 120.600878 116.180701 
L 120.887897 116.283747 
L 120.887897 116.386793 
L 121.318425 116.48984 
L 121.318425 116.747455 
L 121.748954 116.850501 
L 121.748954 117.005071 
L 122.035973 117.056594 
L 122.035973 117.211163 
L 122.179482 117.211163 
L 122.179482 117.365732 
L 122.322992 117.365732 
L 122.322992 117.726394 
L 122.466502 117.726394 
L 122.466502 118.756856 
L 122.610011 118.756856 
L 122.610011 120.508641 
L 122.753521 120.508641 
L 122.753521 122.054334 
L 122.89703 122.054334 
L 122.89703 122.518042 
L 123.184049 122.621089 
L 123.184049 122.724135 
L 123.471068 122.827181 
L 123.471068 122.98175 
L 123.758087 123.033273 
L 123.758087 123.13632 
L 123.901597 123.13632 
L 123.901597 123.290889 
L 124.045106 123.290889 
L 124.045106 123.548504 
L 124.332125 123.651551 
L 124.332125 123.703074 
L 124.475635 123.703074 
L 124.475635 123.909166 
L 124.762654 123.960689 
L 124.762654 124.063735 
L 125.049673 124.166782 
L 125.049673 124.372874 
L 125.336692 124.424397 
L 125.336692 124.527443 
L 125.76722 124.63049 
L 125.76722 124.785059 
L 126.054239 124.888105 
L 126.054239 124.991151 
L 126.628277 125.094197 
L 126.628277 125.609428 
L 126.771787 125.609428 
L 126.771787 126.433798 
L 126.915296 126.433798 
L 126.915296 127.258168 
L 127.058806 127.258168 
L 127.058806 129.473661 
L 127.202315 129.473661 
L 127.202315 130.091938 
L 127.489334 130.091938 
L 127.489334 130.298031 
L 127.776353 130.349554 
L 127.776353 130.4526 
L 127.919863 130.4526 
L 127.919863 130.658692 
L 128.063372 130.658692 
L 128.063372 130.864785 
L 128.350391 130.967831 
L 128.350391 131.019354 
L 128.63741 131.1224 
L 128.63741 131.225447 
L 129.067939 131.328493 
L 129.067939 131.380016 
L 129.211448 131.380016 
L 129.211448 131.534585 
L 129.928996 131.637631 
L 129.928996 131.689154 
L 130.646544 131.792201 
L 130.646544 131.895247 
L 131.077072 131.94677 
L 131.077072 132.513524 
L 131.220582 132.513524 
L 131.220582 133.647032 
L 131.364091 133.647032 
L 131.364091 134.471402 
L 131.507601 134.471402 
L 131.507601 135.759479 
L 131.65111 135.759479 
L 131.65111 136.326234 
L 131.79462 136.326234 
L 131.79462 136.480803 
L 132.081639 136.583849 
L 132.081639 136.738418 
L 132.225148 136.738418 
L 132.225148 136.996034 
L 132.512167 137.047557 
L 132.512167 137.202126 
L 132.799186 137.305172 
L 132.799186 137.408219 
L 132.942696 137.408219 
L 132.942696 137.562788 
L 133.086205 137.562788 
L 133.086205 137.76888 
L 133.373224 137.871927 
L 133.373224 138.078019 
L 133.516734 138.078019 
L 133.516734 138.232588 
L 133.947262 138.335635 
L 133.947262 138.490204 
L 134.377791 138.541727 
L 134.377791 138.644773 
L 134.808319 138.644773 
L 134.808319 138.850866 
L 135.238848 138.953912 
L 135.238848 139.160004 
L 135.382357 139.160004 
L 135.382357 139.314573 
L 135.525867 139.314573 
L 135.525867 140.654174 
L 135.669376 140.654174 
L 135.669376 141.684636 
L 135.812886 141.684636 
L 135.812886 142.921191 
L 135.956395 142.921191 
L 135.956395 143.900129 
L 136.099905 143.900129 
L 136.099905 144.157745 
L 136.243414 144.157745 
L 136.243414 144.41536 
L 136.673943 144.518407 
L 136.673943 144.56993 
L 136.960962 144.672976 
L 136.960962 144.724499 
L 137.104472 144.724499 
L 137.104472 144.879068 
L 137.247981 144.879068 
L 137.247981 145.085161 
L 137.535 145.188207 
L 137.535 145.291253 
L 137.822019 145.291253 
L 137.822019 145.445822 
L 138.109038 145.548869 
L 138.109038 145.806484 
L 138.396057 145.858007 
L 138.396057 146.012577 
L 138.683076 146.115623 
L 138.683076 146.167146 
L 138.970095 146.218669 
L 138.970095 146.527808 
L 139.113605 146.527808 
L 139.113605 146.682377 
L 139.257114 146.682377 
L 139.257114 146.836946 
L 139.544133 146.888469 
L 139.544133 147.043039 
L 139.831152 147.146085 
L 139.831152 147.455223 
L 139.974662 147.455223 
L 139.974662 148.485685 
L 140.118171 148.485685 
L 140.118171 150.185948 
L 140.261681 150.185948 
L 140.261681 150.804225 
L 140.40519 150.804225 
L 140.40519 151.474025 
L 140.979228 151.577072 
L 140.979228 151.628595 
L 141.266247 151.680118 
L 141.266247 151.783164 
L 141.696776 151.88621 
L 141.696776 151.937733 
L 142.127304 152.040779 
L 142.127304 152.143826 
L 142.844852 152.246872 
L 142.844852 152.298395 
L 143.131871 152.349918 
L 143.131871 152.55601 
L 143.27538 152.55601 
L 143.27538 152.762103 
L 143.705909 152.813626 
L 143.705909 152.968195 
L 143.849418 152.968195 
L 143.849418 153.122765 
L 143.992928 153.122765 
L 143.992928 153.277334 
L 144.279947 153.328857 
L 144.279947 154.410842 
L 144.423457 154.410842 
L 144.423457 156.008058 
L 144.566966 156.008058 
L 144.566966 157.19309 
L 144.710476 157.19309 
L 144.710476 157.502228 
L 145.141004 157.605274 
L 145.141004 157.811367 
L 145.715042 157.914413 
L 145.715042 157.965936 
L 146.145571 158.017459 
L 146.145571 158.120505 
L 146.28908 158.120505 
L 146.28908 158.275075 
L 146.576099 158.378121 
L 146.576099 158.429644 
L 146.863118 158.481167 
L 146.863118 158.635736 
L 147.150137 158.738783 
L 147.150137 158.893352 
L 147.437156 158.893352 
L 147.437156 159.047921 
L 147.724175 159.150967 
L 147.724175 159.305537 
L 148.154704 159.35706 
L 148.154704 159.563152 
L 148.298213 159.563152 
L 148.298213 159.717722 
L 148.585232 159.717722 
L 148.585232 160.02686 
L 148.728742 160.02686 
L 148.728742 161.211892 
L 148.872251 161.211892 
L 148.872251 162.912154 
L 149.015761 162.912154 
L 149.015761 163.375862 
L 149.30278 163.478908 
L 149.30278 163.530431 
L 149.876818 163.633477 
L 149.876818 163.788047 
L 150.307346 163.83957 
L 150.307346 163.994139 
L 150.881384 164.097185 
L 150.881384 164.200231 
L 151.024894 164.200231 
L 151.024894 164.457847 
L 151.455422 164.50937 
L 151.455422 164.612416 
L 152.459989 164.715462 
L 152.459989 164.766986 
L 152.747008 164.818509 
L 152.747008 164.973078 
L 152.890518 164.973078 
L 152.890518 165.127647 
L 153.034027 165.127647 
L 153.034027 165.745924 
L 153.177537 165.745924 
L 153.177537 167.188571 
L 153.321046 167.188571 
L 153.321046 167.446187 
L 153.464556 167.446187 
L 153.464556 167.652279 
L 153.608065 167.652279 
L 153.608065 167.858372 
L 153.751575 167.858372 
L 153.751575 168.012941 
L 154.182103 168.064464 
L 154.182103 168.16751 
L 154.612632 168.270556 
L 154.612632 168.373603 
L 155.04316 168.476649 
L 155.04316 168.528172 
L 155.18667 168.528172 
L 155.18667 168.682741 
L 155.330179 168.682741 
L 155.330179 168.99188 
L 156.047727 169.094926 
L 156.047727 169.146449 
L 156.334746 169.249495 
L 156.334746 169.301018 
L 156.478255 169.301018 
L 156.478255 169.455588 
L 157.195803 169.558634 
L 157.195803 169.713203 
L 157.339312 169.713203 
L 157.339312 169.867773 
L 157.482822 169.867773 
L 157.482822 170.795188 
L 157.626331 170.795188 
L 157.626331 172.289358 
L 157.769841 172.289358 
L 157.769841 172.495451 
L 158.05686 172.546974 
L 158.05686 172.65002 
L 158.343879 172.753066 
L 158.343879 172.856112 
L 158.774407 172.907636 
L 158.774407 173.062205 
L 159.204936 173.062205 
L 159.204936 173.268297 
L 159.778974 173.371343 
L 159.778974 173.422867 
L 159.922484 173.422867 
L 159.922484 173.628959 
L 160.496522 173.732005 
L 160.496522 173.783528 
L 161.07056 173.835051 
L 161.07056 173.938098 
L 161.644598 174.041144 
L 161.644598 174.092667 
L 161.788107 174.092667 
L 161.788107 174.659421 
L 161.931617 174.659421 
L 161.931617 176.102068 
L 162.075126 176.102068 
L 162.075126 176.874914 
L 162.505655 176.926437 
L 162.505655 177.081007 
L 162.936183 177.184053 
L 162.936183 177.235576 
L 163.223202 177.338622 
L 163.223202 177.441668 
L 163.510221 177.544715 
L 163.510221 177.596238 
L 163.79724 177.699284 
L 163.79724 177.750807 
L 164.227769 177.853853 
L 164.227769 177.905376 
L 164.514788 178.008423 
L 164.514788 178.059946 
L 165.088826 178.162992 
L 165.088826 178.214515 
L 165.662864 178.317561 
L 165.662864 178.369084 
L 165.949883 178.420607 
L 165.949883 178.678223 
L 166.093392 178.678223 
L 166.093392 179.193454 
L 166.236902 179.193454 
L 166.236902 180.017824 
L 166.380411 180.017824 
L 166.380411 180.996762 
L 166.523921 180.996762 
L 166.523921 181.202855 
L 167.384978 181.305901 
L 167.384978 181.357424 
L 167.815507 181.408947 
L 167.815507 181.511993 
L 167.959016 181.511993 
L 167.959016 181.666563 
L 168.246035 181.718086 
L 168.246035 181.872655 
L 168.533054 181.924178 
L 168.533054 182.027224 
L 169.107092 182.130271 
L 169.107092 182.336363 
L 170.111659 182.439409 
L 170.111659 182.542455 
L 170.398678 182.542455 
L 170.398678 182.903117 
L 170.542187 182.903117 
L 170.542187 183.212256 
L 170.685697 183.212256 
L 170.685697 184.44881 
L 170.829206 184.44881 
L 170.829206 185.376226 
L 171.116225 185.427749 
L 171.116225 185.530795 
L 171.690263 185.633842 
L 171.690263 185.685365 
L 172.407811 185.788411 
L 172.407811 185.94298 
L 172.69483 185.994503 
L 172.69483 186.097549 
L 172.981849 186.149073 
L 172.981849 186.252119 
L 173.125358 186.252119 
L 173.125358 186.406688 
L 173.842906 186.509734 
L 173.842906 186.561257 
L 174.273435 186.664304 
L 174.273435 186.921919 
L 174.703963 186.973442 
L 174.703963 187.282581 
L 174.847473 187.282581 
L 174.847473 187.694766 
L 174.990982 187.694766 
L 174.990982 188.26152 
L 175.134492 188.26152 
L 175.134492 188.622181 
L 175.278001 188.622181 
L 175.278001 188.828274 
L 175.56502 188.828274 
L 175.56502 188.982843 
L 176.139058 189.034366 
L 176.139058 189.188936 
L 176.426077 189.240459 
L 176.426077 189.343505 
L 176.713096 189.446551 
L 176.713096 189.498074 
L 178.004682 189.60112 
L 178.004682 189.652643 
L 178.43521 189.704167 
L 178.43521 189.807213 
L 179.009248 189.807213 
L 179.009248 189.961782 
L 179.152758 189.961782 
L 179.152758 190.477013 
L 179.296267 190.477013 
L 179.296267 190.889198 
L 179.439777 190.889198 
L 179.439777 191.455952 
L 179.583286 191.455952 
L 179.583286 192.331845 
L 179.870305 192.383368 
L 179.870305 192.537937 
L 180.157324 192.537937 
L 180.157324 192.692506 
L 180.444343 192.74403 
L 180.444343 192.847076 
L 181.161891 192.950122 
L 181.161891 193.001645 
L 181.44891 193.053168 
L 181.44891 193.156214 
L 181.735929 193.259261 
L 181.735929 193.310784 
L 181.879439 193.310784 
L 181.879439 193.465353 
L 182.596986 193.568399 
L 182.596986 193.619922 
L 182.740496 193.619922 
L 182.740496 193.774492 
L 183.171024 193.826015 
L 183.171024 193.929061 
L 183.458043 194.032107 
L 183.458043 194.08363 
L 183.601553 194.08363 
L 183.601553 194.701907 
L 183.745062 194.701907 
L 183.745062 194.856477 
L 183.888572 194.856477 
L 183.888572 195.165615 
L 184.032081 195.165615 
L 184.032081 195.835416 
L 184.46261 195.886939 
L 184.46261 195.989985 
L 185.180157 196.041508 
L 185.180157 196.144554 
L 185.897705 196.2476 
L 185.897705 196.350647 
L 186.184724 196.453693 
L 186.184724 196.711308 
L 186.758762 196.814355 
L 186.758762 196.865878 
L 187.045781 196.968924 
L 187.045781 197.020447 
L 187.763328 197.123493 
L 187.763328 197.175016 
L 187.906838 197.175016 
L 187.906838 197.432632 
L 188.050347 197.432632 
L 188.050347 198.360048 
L 188.193857 198.360048 
L 188.193857 198.823756 
L 188.480876 198.926802 
L 188.480876 199.029848 
L 189.198424 199.132894 
L 189.198424 199.184417 
L 189.485443 199.287463 
L 189.485443 199.442033 
L 190.059481 199.493556 
L 190.059481 199.648125 
L 190.490009 199.751171 
L 190.490009 199.802694 
L 190.920538 199.905741 
L 190.920538 199.957264 
L 191.925104 200.06031 
L 191.925104 200.111833 
L 192.212123 200.163356 
L 192.212123 200.317925 
L 192.355633 200.317925 
L 192.355633 201.090772 
L 192.499142 201.090772 
L 192.499142 201.812095 
L 192.642652 201.812095 
L 192.642652 202.172757 
L 192.786161 202.172757 
L 192.786161 202.584942 
L 193.360199 202.687988 
L 193.360199 202.842557 
L 194.221256 202.945604 
L 194.221256 203.04865 
L 194.938804 203.151696 
L 194.938804 203.203219 
L 195.512842 203.306265 
L 195.512842 203.357788 
L 195.799861 203.460835 
L 195.799861 203.563881 
L 196.660918 203.666927 
L 196.660918 203.873019 
L 196.804428 203.873019 
L 196.804428 204.955005 
L 196.947937 204.955005 
L 196.947937 205.521759 
L 197.091447 205.521759 
L 197.091447 205.88242 
L 197.378466 205.985467 
L 197.378466 206.03699 
L 198.526542 206.140036 
L 198.526542 206.191559 
L 198.670051 206.191559 
L 198.670051 206.346128 
L 199.387599 206.449175 
L 199.387599 206.500698 
L 199.961637 206.603744 
L 199.961637 206.655267 
L 201.109713 206.758313 
L 201.109713 207.273544 
L 201.253222 207.273544 
L 201.253222 207.788775 
L 201.396732 207.788775 
L 201.396732 208.046391 
L 201.540241 208.046391 
L 201.540241 208.304006 
L 202.257789 208.355529 
L 202.257789 208.458575 
L 202.975336 208.561622 
L 202.975336 208.613145 
L 203.405865 208.716191 
L 203.405865 208.819237 
L 203.692884 208.922283 
L 203.692884 208.973806 
L 204.410432 209.076853 
L 204.410432 209.179899 
L 204.98447 209.282945 
L 204.98447 209.334468 
L 205.414998 209.437514 
L 205.414998 209.643607 
L 205.558508 209.643607 
L 205.558508 210.107315 
L 205.702017 210.107315 
L 205.702017 210.467976 
L 205.989036 210.571023 
L 205.989036 210.622546 
L 206.419565 210.725592 
L 206.419565 210.880161 
L 208.285188 210.983207 
L 208.285188 211.034731 
L 208.572207 211.086254 
L 208.572207 211.1893 
L 209.289755 211.240823 
L 209.289755 211.343869 
L 209.863793 211.446915 
L 209.863793 211.8591 
L 210.007302 211.8591 
L 210.007302 213.095655 
L 210.58134 213.198701 
L 210.58134 213.250224 
L 211.298888 213.35327 
L 211.298888 213.456316 
L 211.585907 213.559363 
L 211.585907 213.662409 
L 212.877493 213.765455 
L 212.877493 213.816978 
L 213.451531 213.920024 
L 213.451531 213.971547 
L 214.025569 214.074594 
L 214.025569 214.126117 
L 214.312588 214.229163 
L 214.312588 215.105056 
L 214.456097 215.105056 
L 214.456097 215.826379 
L 214.886626 215.877902 
L 214.886626 215.980948 
L 216.321721 216.083994 
L 216.321721 216.135518 
L 216.895759 216.238564 
L 216.895759 216.290087 
L 217.756816 216.393133 
L 217.756816 216.444656 
L 218.474364 216.547702 
L 218.474364 216.650749 
L 218.617873 216.650749 
L 218.617873 216.908364 
L 218.761383 216.908364 
L 218.761383 217.475118 
L 219.335421 217.578164 
L 219.335421 217.629688 
L 220.339987 217.732734 
L 220.339987 217.784257 
L 221.057535 217.887303 
L 221.057535 217.938826 
L 221.631573 218.041872 
L 221.631573 218.093395 
L 222.062101 218.093395 
L 222.062101 218.247965 
L 222.49263 218.351011 
L 222.49263 218.402534 
L 222.779649 218.454057 
L 222.779649 218.557103 
L 223.066668 218.66015 
L 223.066668 218.969288 
L 223.210177 218.969288 
L 223.210177 219.432996 
L 223.927725 219.536042 
L 223.927725 219.639088 
L 224.358253 219.690612 
L 224.358253 219.793658 
L 224.932291 219.896704 
L 224.932291 219.948227 
L 225.649839 219.99975 
L 225.649839 220.102796 
L 226.223877 220.205843 
L 226.223877 220.257366 
L 226.941425 220.360412 
L 226.941425 220.411935 
L 227.228444 220.463458 
L 227.228444 220.82412 
L 227.371953 220.82412 
L 227.371953 220.978689 
L 227.515463 220.978689 
L 227.515463 221.390874 
L 228.089501 221.49392 
L 228.089501 221.545443 
L 229.237577 221.596966 
L 229.237577 221.751536 
L 229.668105 221.803059 
L 229.668105 221.906105 
L 230.385653 222.009151 
L 230.385653 222.060674 
L 230.959691 222.112197 
L 230.959691 222.215244 
L 231.677238 222.31829 
L 231.677238 222.524382 
L 231.820748 222.524382 
L 231.820748 222.833521 
L 231.964257 222.833521 
L 231.964257 223.091136 
L 232.394786 223.194182 
L 232.394786 223.245706 
L 233.255843 223.348752 
L 233.255843 223.400275 
L 234.547429 223.503321 
L 234.547429 223.554844 
L 235.408486 223.65789 
L 235.408486 223.709413 
L 235.839014 223.760937 
L 235.839014 223.863983 
L 235.982524 223.863983 
L 235.982524 224.173121 
L 236.126033 224.173121 
L 236.126033 224.327691 
L 236.269543 224.327691 
L 236.269543 224.48226 
L 236.413052 224.48226 
L 236.413052 224.636829 
L 236.98709 224.636829 
L 236.98709 224.791399 
L 238.278676 224.894445 
L 238.278676 224.945968 
L 239.139733 225.049014 
L 239.139733 225.100537 
L 239.713771 225.203583 
L 239.713771 225.255107 
L 240.431319 225.30663 
L 240.431319 225.564245 
L 240.574828 225.564245 
L 240.574828 225.718814 
L 240.718338 225.718814 
L 240.718338 225.873384 
L 241.722904 225.97643 
L 241.722904 226.079476 
L 243.588528 226.182522 
L 243.588528 226.234045 
L 244.736604 226.337092 
L 244.736604 226.749276 
L 244.880113 226.749276 
L 244.880113 226.903846 
L 245.167132 226.955369 
L 245.167132 227.316031 
L 245.597661 227.367554 
L 245.597661 227.4706 
L 247.032756 227.573646 
L 247.032756 227.625169 
L 247.319775 227.676692 
L 247.319775 227.779738 
L 247.750304 227.882785 
L 247.750304 227.934308 
L 249.185399 228.037354 
L 249.185399 228.449539 
L 249.328908 228.449539 
L 249.328908 228.604108 
L 249.472418 228.604108 
L 249.472418 228.758677 
L 250.476984 228.861724 
L 250.476984 228.913247 
L 252.055589 229.016293 
L 252.055589 229.119339 
L 253.490684 229.222385 
L 253.490684 229.325432 
L 253.634193 229.325432 
L 253.634193 229.840663 
L 254.351741 229.943709 
L 254.351741 229.995232 
L 254.63876 229.995232 
L 254.63876 230.149801 
L 255.069289 230.252847 
L 255.069289 230.30437 
L 255.499817 230.355894 
L 255.499817 230.45894 
L 256.360874 230.561986 
L 256.360874 230.665032 
L 257.795969 230.768078 
L 257.795969 230.819601 
L 257.939479 230.819601 
L 257.939479 231.077217 
L 258.082988 231.077217 
L 258.082988 231.489402 
L 258.800536 231.540925 
L 258.800536 231.643971 
L 260.666159 231.747017 
L 260.666159 231.79854 
L 261.383707 231.901587 
L 261.383707 231.95311 
L 262.388273 232.056156 
L 262.388273 232.674433 
L 264.110388 232.777479 
L 264.110388 232.880526 
L 264.684426 232.983572 
L 264.684426 233.035095 
L 265.832502 233.138141 
L 265.832502 233.241187 
L 266.40654 233.344233 
L 266.40654 233.395757 
L 266.837068 233.44728 
L 266.837068 233.859464 
L 268.989711 233.962511 
L 268.989711 234.014034 
L 270.281297 234.11708 
L 270.281297 234.168603 
L 271.142354 234.271649 
L 271.142354 234.580788 
L 271.716392 234.683834 
L 271.716392 234.735357 
L 273.438506 234.838403 
L 273.438506 234.889926 
L 274.586582 234.992973 
L 274.586582 235.044496 
L 275.304129 235.096019 
L 275.304129 235.199065 
L 275.447639 235.199065 
L 275.447639 235.353634 
L 275.591148 235.353634 
L 275.591148 235.61125 
L 276.882734 235.714296 
L 276.882734 235.765819 
L 279.035377 235.868865 
L 279.035377 235.920389 
L 279.752924 235.971912 
L 279.752924 236.178004 
L 280.039943 236.28105 
L 280.039943 236.538666 
L 280.901 236.641712 
L 280.901 236.693235 
L 281.905567 236.744758 
L 281.905567 236.899327 
L 282.192586 236.899327 
L 282.192586 237.053897 
L 282.910133 237.156943 
L 282.910133 237.208466 
L 283.77119 237.311512 
L 283.77119 237.363035 
L 284.201719 237.466082 
L 284.201719 237.517605 
L 284.345228 237.517605 
L 284.345228 237.723697 
L 286.497871 237.826743 
L 286.497871 237.878266 
L 288.507004 237.981313 
L 288.507004 238.238928 
L 288.794023 238.341974 
L 288.794023 238.393497 
L 289.081042 238.496544 
L 289.081042 238.548067 
L 291.377194 238.651113 
L 291.377194 238.754159 
L 292.81229 238.857205 
L 292.81229 238.908728 
L 293.099309 238.960251 
L 293.099309 239.114821 
L 294.821423 239.217867 
L 294.821423 239.26939 
L 296.113008 239.320913 
L 296.113008 239.423959 
L 297.117575 239.527006 
L 297.117575 239.630052 
L 297.261084 239.630052 
L 297.261084 239.784621 
L 297.691613 239.887667 
L 297.691613 239.93919 
L 298.265651 240.042237 
L 298.265651 240.09376 
L 299.987765 240.196806 
L 299.987765 240.248329 
L 300.992332 240.351375 
L 300.992332 240.402898 
L 302.714446 240.505945 
L 302.714446 240.557468 
L 303.862522 240.557468 
L 303.862522 240.712037 
L 306.015164 240.815083 
L 306.015164 240.969652 
L 306.445693 241.072699 
L 306.445693 241.124222 
L 310.32045 241.227268 
L 310.32045 241.381837 
L 310.607469 241.484883 
L 310.607469 241.58793 
L 311.181507 241.690976 
L 311.181507 241.742499 
L 313.19064 241.794022 
L 313.19064 241.897068 
L 313.908187 242.000114 
L 313.908187 242.051638 
L 314.482226 242.051638 
L 314.482226 242.103161 
" clip-path="url(#p5f76a44ece)" style="fill: none; stroke: #0073c2; stroke-width: 1.5; stroke-linecap: square"/>
   </g>
   <g id="LineCollection_1">
    <path d="M 52.72088 131.070877 
L 128.493901 131.070877 
" clip-path="url(#p5f76a44ece)" style="fill: none; stroke-dasharray: 2.96,1.28; stroke-dashoffset: 0; stroke: #0073c2; stroke-opacity: 0.5; stroke-width: 0.8"/>
   </g>
   <g id="LineCollection_2">
    <path d="M 128.493901 242.103161 
L 128.493901 131.070877 
" clip-path="url(#p5f76a44ece)" style="fill: none; stroke-dasharray: 2.96,1.28; stroke-dashoffset: 0; stroke: #0073c2; stroke-opacity: 0.5; stroke-width: 0.8"/>
   </g>
   <g id="line2d_16">
    <path d="M 52.72088 20.038594 
L 57.743713 20.123287 
L 57.743713 20.207979 
L 61.47496 20.207979 
L 61.47496 20.546751 
L 61.618469 20.546751 
L 61.618469 20.716136 
L 62.336017 20.800829 
L 62.336017 20.885522 
L 65.636736 20.970215 
L 65.636736 21.1396 
L 67.502359 21.224293 
L 67.502359 21.308986 
L 67.789378 21.393679 
L 67.789378 21.478372 
L 69.367983 21.563064 
L 69.367983 21.647757 
L 69.655002 21.647757 
L 69.655002 21.817143 
L 70.372549 21.901836 
L 70.372549 21.986529 
L 70.946588 21.986529 
L 70.946588 22.155914 
L 71.664135 22.240607 
L 71.664135 22.3253 
L 72.525192 22.409993 
L 72.525192 22.494685 
L 74.677835 22.579378 
L 74.677835 23.002842 
L 75.825911 23.087535 
L 75.825911 23.256921 
L 76.686968 23.341614 
L 76.686968 23.426306 
L 77.261006 23.426306 
L 77.261006 23.595692 
L 77.978553 23.680385 
L 77.978553 23.765078 
L 78.696101 23.849771 
L 78.696101 24.273235 
L 78.98312 24.357927 
L 78.98312 24.44262 
L 80.131196 24.527313 
L 80.131196 24.612006 
L 81.99682 24.696699 
L 81.99682 24.781392 
L 82.570858 24.781392 
L 82.570858 24.950777 
L 83.144896 24.950777 
L 83.144896 25.458934 
L 83.288405 25.458934 
L 83.288405 25.713013 
L 83.431915 25.713013 
L 83.431915 26.221169 
L 83.575424 26.221169 
L 83.575424 26.390555 
L 84.005953 26.475248 
L 84.005953 26.559941 
L 84.436481 26.644633 
L 84.436481 26.729326 
L 86.302105 26.814019 
L 86.302105 26.898712 
L 87.019653 26.983405 
L 87.019653 27.068098 
L 87.450181 27.15279 
L 87.450181 27.74564 
L 87.593691 27.74564 
L 87.593691 28.423183 
L 87.7372 28.423183 
L 87.7372 28.677261 
L 87.88071 28.677261 
L 87.88071 29.100725 
L 89.028786 29.185418 
L 89.028786 29.270111 
L 89.459314 29.354804 
L 89.459314 29.439496 
L 89.889843 29.524189 
L 89.889843 29.608882 
L 90.7509 29.693575 
L 90.7509 29.862961 
L 91.898976 29.947653 
L 91.898976 30.963967 
L 92.042485 30.963967 
L 92.042485 31.64151 
L 92.185995 31.64151 
L 92.185995 32.319052 
L 92.760033 32.403745 
L 92.760033 32.657824 
L 93.047052 32.742516 
L 93.047052 32.911902 
L 93.334071 32.911902 
L 93.334071 33.16598 
L 94.051619 33.250673 
L 94.051619 33.335366 
L 94.912676 33.420059 
L 94.912676 33.504752 
L 95.630223 33.504752 
L 95.630223 33.674137 
L 96.060752 33.674137 
L 96.060752 33.843523 
L 96.204261 33.843523 
L 96.204261 34.436373 
L 96.347771 34.436373 
L 96.347771 35.960843 
L 96.49128 35.960843 
L 96.49128 36.469 
L 96.63479 36.469 
L 96.63479 36.807772 
L 97.065318 36.892464 
L 97.065318 37.06185 
L 97.352337 37.146543 
L 97.352337 37.315928 
L 97.926375 37.315928 
L 97.926375 37.485314 
L 98.356904 37.570007 
L 98.356904 37.739393 
L 98.787432 37.824085 
L 98.787432 37.993471 
L 98.930942 37.993471 
L 98.930942 38.162857 
L 99.074451 38.162857 
L 99.074451 38.332242 
L 99.648489 38.416935 
L 99.648489 38.501628 
L 99.791999 38.501628 
L 99.791999 38.671014 
L 100.653056 38.755706 
L 100.653056 39.856713 
L 100.796566 39.856713 
L 100.796566 41.127105 
L 100.940075 41.127105 
L 100.940075 41.550569 
L 101.083585 41.550569 
L 101.083585 41.719955 
L 101.370604 41.804648 
L 101.370604 41.889341 
L 101.514113 41.889341 
L 101.514113 42.058726 
L 101.944642 42.143419 
L 101.944642 42.228112 
L 102.37517 42.312805 
L 102.37517 42.48219 
L 102.949208 42.566883 
L 102.949208 42.651576 
L 103.953775 42.736269 
L 103.953775 42.990347 
L 104.958341 43.07504 
L 104.958341 43.159733 
L 105.101851 43.159733 
L 105.101851 45.531132 
L 105.24536 45.531132 
L 105.24536 46.462753 
L 105.38887 46.462753 
L 105.38887 46.632138 
L 105.675889 46.716831 
L 105.675889 46.886217 
L 106.106417 46.97091 
L 106.106417 47.055602 
L 106.680455 47.055602 
L 106.680455 47.224988 
L 107.110984 47.309681 
L 107.110984 47.394374 
L 107.828532 47.479067 
L 107.828532 47.563759 
L 107.972041 47.563759 
L 107.972041 47.817838 
L 108.546079 47.817838 
L 108.546079 48.156609 
L 108.976608 48.241302 
L 108.976608 48.410688 
L 109.120117 48.410688 
L 109.120117 48.664766 
L 109.407136 48.664766 
L 109.407136 49.596387 
L 109.550646 49.596387 
L 109.550646 51.205551 
L 109.694155 51.205551 
L 109.694155 52.052479 
L 110.555212 52.137172 
L 110.555212 52.221864 
L 110.842231 52.306557 
L 110.842231 52.39125 
L 110.985741 52.39125 
L 110.985741 52.645328 
L 111.27276 52.730021 
L 111.27276 52.899407 
L 111.416269 52.899407 
L 111.416269 53.068792 
L 111.703288 53.153485 
L 111.703288 53.322871 
L 111.990307 53.407564 
L 111.990307 53.576949 
L 112.277326 53.661642 
L 112.277326 53.746335 
L 112.851364 53.746335 
L 112.851364 54.085106 
L 113.138383 54.169799 
L 113.138383 54.423878 
L 113.425402 54.50857 
L 113.425402 54.593263 
L 113.712421 54.677956 
L 113.712421 55.355499 
L 113.855931 55.355499 
L 113.855931 56.541198 
L 113.99944 56.541198 
L 113.99944 57.81159 
L 114.14295 57.81159 
L 114.14295 58.319747 
L 114.429969 58.40444 
L 114.429969 58.489133 
L 114.716988 58.573826 
L 114.716988 58.658518 
L 114.860497 58.658518 
L 114.860497 58.912597 
L 115.434536 58.99729 
L 115.434536 59.081983 
L 116.008574 59.166675 
L 116.008574 59.420754 
L 117.01314 59.505447 
L 117.01314 59.674832 
L 117.300159 59.674832 
L 117.300159 59.844218 
L 117.587178 59.928911 
L 117.587178 60.013604 
L 117.874197 60.013604 
L 117.874197 60.182989 
L 118.017707 60.182989 
L 118.017707 60.52176 
L 118.161216 60.52176 
L 118.161216 61.368689 
L 118.304726 61.368689 
L 118.304726 63.486009 
L 118.448235 63.486009 
L 118.448235 64.248244 
L 119.022273 64.332937 
L 119.022273 64.587016 
L 119.739821 64.671708 
L 119.739821 64.756401 
L 119.88333 64.756401 
L 119.88333 64.925787 
L 120.02684 64.925787 
L 120.02684 65.095173 
L 120.313859 65.179865 
L 120.313859 65.264558 
L 120.887897 65.349251 
L 120.887897 65.603329 
L 121.748954 65.688022 
L 121.748954 65.772715 
L 122.035973 65.857408 
L 122.035973 65.942101 
L 122.322992 65.942101 
L 122.322992 66.196179 
L 122.466502 66.196179 
L 122.466502 66.619643 
L 122.610011 66.619643 
L 122.610011 68.482885 
L 122.753521 68.482885 
L 122.753521 69.668585 
L 122.89703 69.668585 
L 122.89703 70.007356 
L 123.184049 70.092049 
L 123.184049 70.176742 
L 123.471068 70.261434 
L 123.471068 70.515513 
L 123.758087 70.600206 
L 123.758087 70.684898 
L 124.045106 70.684898 
L 124.045106 70.854284 
L 124.332125 70.938977 
L 124.332125 71.02367 
L 125.049673 71.108363 
L 125.049673 71.193055 
L 125.480201 71.277748 
L 125.480201 71.447134 
L 125.91073 71.531827 
L 125.91073 71.701212 
L 126.054239 71.701212 
L 126.054239 71.870598 
L 126.341258 71.870598 
L 126.341258 72.039984 
L 126.628277 72.124676 
L 126.628277 72.209369 
L 126.771787 72.209369 
L 126.771787 72.971605 
L 126.915296 72.971605 
L 126.915296 73.395069 
L 127.058806 73.395069 
L 127.058806 74.919539 
L 127.202315 74.919539 
L 127.202315 75.681775 
L 127.489334 75.766468 
L 127.489334 75.935853 
L 127.919863 76.020546 
L 127.919863 76.189932 
L 128.350391 76.274624 
L 128.350391 76.44401 
L 128.78092 76.528703 
L 128.78092 76.613396 
L 128.924429 76.613396 
L 128.924429 77.121553 
L 129.211448 77.206245 
L 129.211448 77.460324 
L 129.498467 77.545017 
L 129.498467 77.799095 
L 129.785487 77.883788 
L 129.785487 77.968481 
L 130.072506 78.053174 
L 130.072506 78.137866 
L 130.503034 78.222559 
L 130.503034 78.307252 
L 130.790053 78.307252 
L 130.790053 78.476638 
L 131.077072 78.476638 
L 131.077072 79.15418 
L 131.220582 79.15418 
L 131.220582 79.74703 
L 131.364091 79.74703 
L 131.364091 80.678651 
L 131.507601 80.678651 
L 131.507601 82.118429 
L 131.65111 82.118429 
L 131.65111 82.626586 
L 132.081639 82.711279 
L 132.081639 82.965357 
L 132.225148 82.965357 
L 132.225148 83.134743 
L 132.655677 83.219435 
L 132.655677 83.388821 
L 132.942696 83.473514 
L 132.942696 83.558207 
L 133.229715 83.6429 
L 133.229715 83.812285 
L 133.516734 83.896978 
L 133.516734 84.066364 
L 134.090772 84.151056 
L 134.090772 84.235749 
L 134.234281 84.235749 
L 134.234281 84.405135 
L 134.5213 84.489828 
L 134.5213 84.659213 
L 134.951829 84.743906 
L 134.951829 84.828599 
L 135.095338 84.828599 
L 135.095338 84.997985 
L 135.525867 84.997985 
L 135.525867 86.098991 
L 135.669376 86.098991 
L 135.669376 87.369383 
L 135.812886 87.369383 
L 135.812886 88.301004 
L 135.956395 88.301004 
L 135.956395 88.724469 
L 136.673943 88.809161 
L 136.673943 89.06324 
L 137.391491 89.147933 
L 137.391491 89.232625 
L 137.535 89.232625 
L 137.535 89.571397 
L 137.67851 89.571397 
L 137.67851 89.825475 
L 137.965529 89.910168 
L 137.965529 89.994861 
L 138.109038 89.994861 
L 138.109038 90.164246 
L 138.252548 90.164246 
L 138.252548 90.333632 
L 138.970095 90.418325 
L 138.970095 90.587711 
L 139.257114 90.672403 
L 139.257114 90.757096 
L 139.831152 90.841789 
L 139.831152 91.434639 
L 139.974662 91.434639 
L 139.974662 92.705031 
L 140.118171 92.705031 
L 140.118171 93.975423 
L 140.261681 93.975423 
L 140.261681 94.822351 
L 140.692209 94.907044 
L 140.692209 94.991737 
L 141.122738 95.07643 
L 141.122738 95.161123 
L 141.409757 95.245816 
L 141.409757 95.330508 
L 141.983795 95.415201 
L 141.983795 95.499894 
L 142.270814 95.584587 
L 142.270814 95.66928 
L 142.557833 95.753972 
L 142.557833 95.838665 
L 142.988361 95.923358 
L 142.988361 96.008051 
L 143.131871 96.008051 
L 143.131871 96.262129 
L 143.27538 96.262129 
L 143.27538 96.431515 
L 143.705909 96.516208 
L 143.705909 96.600901 
L 143.992928 96.600901 
L 143.992928 96.770286 
L 144.136437 96.770286 
L 144.136437 97.024365 
L 144.279947 97.024365 
L 144.279947 98.294757 
L 144.423457 98.294757 
L 144.423457 99.819228 
L 144.566966 99.819228 
L 144.566966 100.835541 
L 144.710476 100.835541 
L 144.710476 101.259006 
L 144.997495 101.343698 
L 144.997495 101.428391 
L 145.141004 101.428391 
L 145.141004 101.597777 
L 145.428023 101.68247 
L 145.428023 101.767162 
L 145.571533 101.767162 
L 145.571533 101.936548 
L 145.858552 102.021241 
L 145.858552 102.105934 
L 146.43259 102.190627 
L 146.43259 102.360012 
L 146.576099 102.360012 
L 146.576099 102.614091 
L 146.863118 102.698783 
L 146.863118 102.868169 
L 147.150137 102.952862 
L 147.150137 103.037555 
L 147.580666 103.037555 
L 147.580666 103.291633 
L 147.724175 103.291633 
L 147.724175 103.630404 
L 148.011194 103.630404 
L 148.011194 103.79979 
L 148.154704 103.79979 
L 148.154704 103.969176 
L 148.298213 103.969176 
L 148.298213 104.223254 
L 148.441723 104.223254 
L 148.441723 104.477333 
L 148.585232 104.477333 
L 148.585232 104.900797 
L 148.728742 104.900797 
L 148.728742 106.933424 
L 148.872251 106.933424 
L 148.872251 108.119124 
L 149.015761 108.119124 
L 149.015761 108.796666 
L 149.15927 108.796666 
L 149.15927 108.966052 
L 149.446289 109.050745 
L 149.446289 109.135438 
L 150.307346 109.22013 
L 150.307346 109.389516 
L 150.737875 109.389516 
L 150.737875 109.558902 
L 151.024894 109.643594 
L 151.024894 109.728287 
L 151.455422 109.81298 
L 151.455422 109.982366 
L 152.029461 110.067059 
L 152.029461 110.151751 
L 152.747008 110.236444 
L 152.747008 110.40583 
L 153.034027 110.490523 
L 153.034027 111.591529 
L 153.177537 111.591529 
L 153.177537 114.301699 
L 153.321046 114.301699 
L 153.321046 114.979242 
L 153.608065 115.063935 
L 153.608065 115.23332 
L 154.038594 115.318013 
L 154.038594 115.402706 
L 154.325613 115.487399 
L 154.325613 115.572092 
L 154.469122 115.572092 
L 154.469122 115.741477 
L 154.899651 115.82617 
L 154.899651 115.910863 
L 155.18667 115.995556 
L 155.18667 116.080249 
L 155.330179 116.080249 
L 155.330179 116.249634 
L 155.617198 116.334327 
L 155.617198 116.41902 
L 156.047727 116.503713 
L 156.047727 116.673098 
L 156.191236 116.673098 
L 156.191236 116.842484 
L 156.478255 116.927177 
L 156.478255 117.181255 
L 157.195803 117.265948 
L 157.195803 117.350641 
L 157.482822 117.350641 
L 157.482822 118.790419 
L 157.626331 118.790419 
L 157.626331 120.653661 
L 158.05686 120.738354 
L 158.05686 120.907739 
L 158.487388 120.992432 
L 158.487388 121.161818 
L 158.774407 121.24651 
L 158.774407 121.331203 
L 158.917917 121.331203 
L 158.917917 121.500589 
L 159.061426 121.500589 
L 159.061426 121.669974 
L 159.491955 121.754667 
L 159.491955 121.83936 
L 159.778974 121.924053 
L 159.778974 122.008746 
L 160.209503 122.093439 
L 160.209503 122.347517 
L 160.353012 122.347517 
L 160.353012 122.770981 
L 160.640031 122.855674 
L 160.640031 122.940367 
L 160.92705 123.02506 
L 160.92705 123.279138 
L 161.214069 123.363831 
L 161.214069 123.533216 
L 161.357579 123.533216 
L 161.357579 123.702602 
L 161.644598 123.787295 
L 161.644598 124.041373 
L 161.788107 124.041373 
L 161.788107 124.295452 
L 161.931617 124.295452 
L 161.931617 125.396458 
L 162.075126 125.396458 
L 162.075126 126.751544 
L 162.218636 126.751544 
L 162.218636 127.005622 
L 162.505655 127.090315 
L 162.505655 127.344393 
L 163.079693 127.344393 
L 163.079693 127.513779 
L 163.223202 127.513779 
L 163.223202 127.767857 
L 163.653731 127.85255 
L 163.653731 128.021936 
L 164.084259 128.106629 
L 164.084259 128.191321 
L 164.371278 128.276014 
L 164.371278 128.4454 
L 164.658297 128.530093 
L 164.658297 128.614786 
L 164.945316 128.699478 
L 164.945316 128.868864 
L 165.232335 128.953557 
L 165.232335 129.03825 
L 165.375845 129.03825 
L 165.375845 129.292328 
L 165.806373 129.292328 
L 165.806373 129.461714 
L 166.093392 129.546407 
L 166.093392 130.139256 
L 166.236902 130.139256 
L 166.236902 130.901492 
L 166.380411 130.901492 
L 166.380411 132.002498 
L 166.523921 132.002498 
L 166.523921 132.764734 
L 166.95445 132.849426 
L 166.95445 133.018812 
L 167.097959 133.018812 
L 167.097959 133.27289 
L 167.241469 133.27289 
L 167.241469 133.442276 
L 167.528488 133.526969 
L 167.528488 133.611662 
L 168.246035 133.696355 
L 168.246035 133.86574 
L 168.533054 133.86574 
L 168.533054 134.119819 
L 169.107092 134.204511 
L 169.107092 134.373897 
L 169.82464 134.45859 
L 169.82464 134.543283 
L 170.111659 134.627976 
L 170.111659 134.712668 
L 170.255168 134.712668 
L 170.255168 135.05144 
L 170.398678 135.05144 
L 170.398678 135.644289 
L 170.542187 135.644289 
L 170.542187 136.321832 
L 170.685697 136.321832 
L 170.685697 137.338146 
L 170.829206 137.338146 
L 170.829206 138.947309 
L 170.972716 138.947309 
L 170.972716 139.116695 
L 171.116225 139.116695 
L 171.116225 139.28608 
L 171.259735 139.28608 
L 171.259735 139.624852 
L 171.546754 139.709545 
L 171.546754 139.794237 
L 171.833773 139.87893 
L 171.833773 139.963623 
L 172.120792 140.048316 
L 172.120792 140.133009 
L 172.69483 140.217701 
L 172.69483 140.302394 
L 173.125358 140.302394 
L 173.125358 140.47178 
L 173.555887 140.47178 
L 173.555887 140.641166 
L 173.842906 140.725858 
L 173.842906 140.810551 
L 174.273435 140.810551 
L 174.273435 140.979937 
L 174.703963 141.06463 
L 174.703963 141.403401 
L 174.847473 141.403401 
L 174.847473 142.335022 
L 174.990982 142.335022 
L 174.990982 143.012564 
L 175.134492 143.012564 
L 175.134492 143.944185 
L 175.278001 143.944185 
L 175.278001 144.198264 
L 175.852039 144.282957 
L 175.852039 144.36765 
L 176.139058 144.452342 
L 176.139058 144.537035 
L 177.000115 144.621728 
L 177.000115 144.706421 
L 177.287134 144.791114 
L 177.287134 145.045192 
L 177.430644 145.045192 
L 177.430644 145.214578 
L 177.717663 145.214578 
L 177.717663 145.383963 
L 178.004682 145.383963 
L 178.004682 145.553349 
L 178.148191 145.553349 
L 178.148191 145.722735 
L 178.57872 145.807427 
L 178.57872 145.89212 
L 178.722229 145.89212 
L 178.722229 146.061506 
L 178.865739 146.061506 
L 178.865739 146.230892 
L 179.009248 146.230892 
L 179.009248 146.400277 
L 179.152758 146.400277 
L 179.152758 147.07782 
L 179.296267 147.07782 
L 179.296267 147.840055 
L 179.439777 147.840055 
L 179.439777 148.432905 
L 179.583286 148.432905 
L 179.583286 149.19514 
L 179.726796 149.19514 
L 179.726796 149.449219 
L 180.013815 149.449219 
L 180.013815 149.618604 
L 180.300834 149.618604 
L 180.300834 149.872683 
L 180.444343 149.872683 
L 180.444343 150.042068 
L 181.018381 150.126761 
L 181.018381 150.211454 
L 181.161891 150.211454 
L 181.161891 150.38084 
L 181.44891 150.465532 
L 181.44891 150.550225 
L 181.879439 150.634918 
L 181.879439 150.719611 
L 182.309967 150.804304 
L 182.309967 150.973689 
L 182.453477 150.973689 
L 182.453477 151.143075 
L 182.596986 151.143075 
L 182.596986 151.312461 
L 182.884005 151.397153 
L 182.884005 151.481846 
L 183.601553 151.566539 
L 183.601553 152.667546 
L 183.745062 152.667546 
L 183.745062 152.921624 
L 183.888572 152.921624 
L 183.888572 153.683859 
L 184.032081 153.683859 
L 184.032081 154.276709 
L 184.3191 154.361402 
L 184.3191 154.61548 
L 184.606119 154.700173 
L 184.606119 154.784866 
L 184.893138 154.784866 
L 184.893138 154.954252 
L 185.610686 155.038945 
L 185.610686 155.293023 
L 186.041214 155.293023 
L 186.041214 155.547101 
L 186.615252 155.631794 
L 186.615252 155.80118 
L 186.758762 155.80118 
L 186.758762 155.970565 
L 187.18929 156.055258 
L 187.18929 156.139951 
L 187.3328 156.139951 
L 187.3328 156.309337 
L 187.476309 156.309337 
L 187.476309 156.478722 
L 187.763328 156.478722 
L 187.763328 156.648108 
L 187.906838 156.648108 
L 187.906838 156.986879 
L 188.050347 156.986879 
L 188.050347 158.257272 
L 188.193857 158.257272 
L 188.193857 158.51135 
L 188.337366 158.51135 
L 188.337366 159.358278 
L 188.480876 159.358278 
L 188.480876 159.527664 
L 188.911405 159.612357 
L 188.911405 159.697049 
L 189.485443 159.781742 
L 189.485443 159.951128 
L 189.628952 159.951128 
L 189.628952 160.120514 
L 189.772462 160.120514 
L 189.772462 160.289899 
L 190.3465 160.374592 
L 190.3465 160.459285 
L 190.633519 160.543978 
L 190.633519 160.62867 
L 191.351066 160.713363 
L 191.351066 160.798056 
L 191.638085 160.882749 
L 191.638085 160.967442 
L 192.212123 161.052135 
L 192.212123 161.22152 
L 192.355633 161.22152 
L 192.355633 161.899063 
L 192.499142 161.899063 
L 192.499142 162.915377 
L 192.642652 162.915377 
L 192.642652 163.423533 
L 192.786161 163.423533 
L 192.786161 163.677612 
L 193.21669 163.762305 
L 193.21669 163.846998 
L 193.790728 163.93169 
L 193.790728 164.016383 
L 193.934237 164.016383 
L 193.934237 164.185769 
L 194.221256 164.270462 
L 194.221256 164.355154 
L 194.508275 164.439847 
L 194.508275 164.52454 
L 194.651785 164.52454 
L 194.651785 164.693926 
L 194.938804 164.778618 
L 194.938804 164.948004 
L 195.225823 164.948004 
L 195.225823 165.11739 
L 195.369332 165.11739 
L 195.369332 165.371468 
L 195.94337 165.456161 
L 195.94337 165.710239 
L 196.373899 165.794932 
L 196.373899 165.879625 
L 196.660918 165.964318 
L 196.660918 166.387782 
L 196.804428 166.387782 
L 196.804428 167.319403 
L 196.947937 167.319403 
L 196.947937 167.573481 
L 197.091447 167.573481 
L 197.091447 167.742867 
L 197.378466 167.82756 
L 197.378466 168.081638 
L 197.808994 168.166331 
L 197.808994 168.335717 
L 197.952504 168.335717 
L 197.952504 168.505102 
L 198.239523 168.505102 
L 198.239523 168.759181 
L 198.813561 168.843874 
L 198.813561 168.928567 
L 199.387599 169.013259 
L 199.387599 169.097952 
L 199.674618 169.182645 
L 199.674618 169.352031 
L 200.392165 169.436723 
L 200.392165 169.606109 
L 200.966203 169.690802 
L 200.966203 170.453037 
L 201.109713 170.453037 
L 201.109713 171.215273 
L 201.253222 171.215273 
L 201.253222 172.146894 
L 201.396732 172.146894 
L 201.396732 172.400972 
L 201.540241 172.400972 
L 201.540241 172.824436 
L 201.683751 172.824436 
L 201.683751 172.993822 
L 201.97077 173.078515 
L 201.97077 173.332593 
L 202.401298 173.417286 
L 202.401298 173.586671 
L 202.975336 173.671364 
L 202.975336 173.756057 
L 203.836394 173.84075 
L 203.836394 173.925443 
L 204.266922 173.925443 
L 204.266922 174.094828 
L 204.410432 174.094828 
L 204.410432 174.348907 
L 204.697451 174.4336 
L 204.697451 174.518292 
L 205.414998 174.602985 
L 205.414998 175.195835 
L 205.558508 175.195835 
L 205.558508 176.296842 
L 205.702017 176.296842 
L 205.702017 177.059077 
L 205.989036 177.14377 
L 205.989036 177.228463 
L 206.419565 177.313155 
L 206.419565 177.397848 
L 206.706584 177.397848 
L 206.706584 177.651927 
L 207.137112 177.73662 
L 207.137112 177.821312 
L 207.424131 177.906005 
L 207.424131 177.990698 
L 207.85466 178.075391 
L 207.85466 178.244776 
L 208.428698 178.329469 
L 208.428698 178.414162 
L 208.572207 178.414162 
L 208.572207 178.668241 
L 209.576774 178.752933 
L 209.576774 178.922319 
L 209.863793 178.922319 
L 209.863793 179.684554 
L 210.007302 179.684554 
L 210.007302 180.616175 
L 210.437831 180.700868 
L 210.437831 180.870254 
L 210.72485 180.954947 
L 210.72485 181.124332 
L 211.442398 181.209025 
L 211.442398 181.293718 
L 212.446964 181.378411 
L 212.446964 181.547796 
L 212.877493 181.547796 
L 212.877493 181.717182 
L 214.025569 181.717182 
L 214.025569 182.140646 
L 214.169078 182.140646 
L 214.169078 182.394724 
L 214.312588 182.394724 
L 214.312588 183.072267 
L 214.456097 183.072267 
L 214.456097 183.834502 
L 214.743116 183.919195 
L 214.743116 184.173274 
L 215.030135 184.173274 
L 215.030135 184.342659 
L 215.460664 184.427352 
L 215.460664 184.512045 
L 216.178211 184.596738 
L 216.178211 184.681431 
L 216.46523 184.681431 
L 216.46523 184.850816 
L 216.752249 184.935509 
L 216.752249 185.020202 
L 217.182778 185.104895 
L 217.182778 185.189587 
L 217.613306 185.27428 
L 217.613306 185.443666 
L 218.187345 185.528359 
L 218.187345 185.613052 
L 218.474364 185.697744 
L 218.474364 186.290594 
L 218.617873 186.290594 
L 218.617873 186.544673 
L 218.761383 186.544673 
L 218.761383 187.391601 
L 218.904892 187.391601 
L 218.904892 187.645679 
L 219.191911 187.645679 
L 219.191911 187.815065 
L 220.339987 187.899758 
L 220.339987 187.98445 
L 220.770516 188.069143 
L 220.770516 188.153836 
L 221.201044 188.238529 
L 221.201044 188.323222 
L 221.488063 188.407915 
L 221.488063 188.492607 
L 221.918592 188.5773 
L 221.918592 188.661993 
L 222.779649 188.746686 
L 222.779649 188.916071 
L 222.923158 188.916071 
L 222.923158 189.593614 
L 223.066668 189.593614 
L 223.066668 190.101771 
L 223.210177 190.101771 
L 223.210177 190.948699 
L 224.071234 191.033392 
L 224.071234 191.202777 
L 224.358253 191.202777 
L 224.358253 191.372163 
L 224.501763 191.372163 
L 224.501763 191.541549 
L 224.645272 191.541549 
L 224.645272 191.710934 
L 225.506329 191.795627 
L 225.506329 192.049706 
L 225.936858 192.134398 
L 225.936858 192.219091 
L 226.510896 192.303784 
L 226.510896 192.47317 
L 227.084934 192.557863 
L 227.084934 192.642555 
L 227.228444 192.642555 
L 227.228444 193.150712 
L 227.371953 193.150712 
L 227.371953 193.320098 
L 227.515463 193.320098 
L 227.515463 194.505797 
L 227.658972 194.505797 
L 227.658972 195.013954 
L 228.089501 195.098647 
L 228.089501 195.18334 
L 228.37652 195.268033 
L 228.37652 195.352726 
L 228.663539 195.437418 
L 228.663539 195.522111 
L 229.524596 195.606804 
L 229.524596 195.691497 
L 230.098634 195.77619 
L 230.098634 195.860882 
L 230.242143 195.860882 
L 230.242143 196.030268 
L 230.959691 196.114961 
L 230.959691 196.199654 
L 231.390219 196.284347 
L 231.390219 196.369039 
L 231.533729 196.369039 
L 231.533729 196.538425 
L 231.677238 196.538425 
L 231.677238 197.30066 
L 231.820748 197.30066 
L 231.820748 197.554739 
L 231.964257 197.554739 
L 231.964257 198.316974 
L 232.251276 198.401667 
L 232.251276 198.48636 
L 232.538295 198.48636 
L 232.538295 198.655745 
L 233.255843 198.740438 
L 233.255843 198.825131 
L 234.26041 198.909824 
L 234.26041 198.994517 
L 235.264976 199.079209 
L 235.264976 199.163902 
L 235.982524 199.248595 
L 235.982524 200.01083 
L 236.126033 200.01083 
L 236.126033 200.180216 
L 236.269543 200.180216 
L 236.269543 200.60368 
L 236.413052 200.60368 
L 236.413052 201.027144 
L 236.700071 201.111837 
L 236.700071 201.19653 
L 236.843581 201.19653 
L 236.843581 201.365916 
L 236.98709 201.365916 
L 236.98709 201.704687 
L 237.848147 201.704687 
L 237.848147 201.958765 
L 237.991657 201.958765 
L 237.991657 202.128151 
L 238.278676 202.212844 
L 238.278676 202.297537 
L 238.852714 202.382229 
L 238.852714 202.551615 
L 239.570261 202.636308 
L 239.570261 202.721001 
L 240.287809 202.805693 
L 240.287809 202.890386 
L 240.431319 202.890386 
L 240.431319 203.9067 
L 240.574828 203.9067 
L 240.574828 204.076086 
L 240.718338 204.076086 
L 240.718338 204.668935 
L 241.435885 204.753628 
L 241.435885 204.838321 
L 241.579395 204.838321 
L 241.579395 205.007707 
L 241.722904 205.007707 
L 241.722904 205.261785 
L 242.583961 205.346478 
L 242.583961 205.431171 
L 243.445018 205.515864 
L 243.445018 205.600556 
L 243.875547 205.685249 
L 243.875547 205.939328 
L 244.736604 206.024021 
L 244.736604 207.125027 
L 244.880113 207.125027 
L 244.880113 207.548491 
L 245.023623 207.548491 
L 245.023623 207.80257 
L 245.167132 207.80257 
L 245.167132 208.141341 
L 245.597661 208.226034 
L 245.597661 208.310727 
L 246.458718 208.395419 
L 246.458718 208.564805 
L 246.602227 208.564805 
L 246.602227 208.818883 
L 246.889246 208.903576 
L 246.889246 208.988269 
L 247.606794 209.072962 
L 247.606794 209.32704 
L 249.185399 209.411733 
L 249.185399 210.089276 
L 249.328908 210.089276 
L 249.328908 210.597433 
L 249.472418 210.597433 
L 249.472418 211.190282 
L 249.615927 211.190282 
L 249.615927 211.359668 
L 249.759437 211.359668 
L 249.759437 211.529054 
L 250.620494 211.613746 
L 250.620494 211.698439 
L 251.194532 211.698439 
L 251.194532 211.867825 
L 251.338041 211.867825 
L 251.338041 212.037211 
L 251.912079 212.121903 
L 251.912079 212.206596 
L 252.629627 212.291289 
L 252.629627 212.375982 
L 253.203665 212.460675 
L 253.203665 212.545367 
L 253.490684 212.63006 
L 253.490684 212.884139 
L 253.634193 212.884139 
L 253.634193 213.646374 
L 253.777703 213.646374 
L 253.777703 213.81576 
L 253.921212 213.81576 
L 253.921212 214.069838 
L 254.63876 214.154531 
L 254.63876 214.323917 
L 254.925779 214.323917 
L 254.925779 214.493302 
L 255.356308 214.577995 
L 255.356308 214.662688 
L 255.930346 214.747381 
L 255.930346 214.832074 
L 256.073855 214.832074 
L 256.073855 215.001459 
L 256.360874 215.001459 
L 256.360874 215.170845 
L 256.647893 215.170845 
L 256.647893 215.34023 
L 257.078422 215.34023 
L 257.078422 215.509616 
L 257.221931 215.509616 
L 257.221931 215.679002 
L 257.65246 215.763695 
L 257.65246 215.848387 
L 257.939479 215.848387 
L 257.939479 216.864701 
L 258.082988 216.864701 
L 258.082988 217.288165 
L 258.226498 217.288165 
L 258.226498 217.542244 
L 258.370007 217.542244 
L 258.370007 217.711629 
L 258.800536 217.796322 
L 258.800536 217.881015 
L 258.944045 217.881015 
L 258.944045 218.050401 
L 259.661593 218.135093 
L 259.661593 218.558557 
L 259.948612 218.558557 
L 259.948612 218.727943 
L 261.096688 218.812636 
L 261.096688 218.897329 
L 261.383707 218.982022 
L 261.383707 219.066714 
L 261.527216 219.066714 
L 261.527216 219.2361 
L 262.101254 219.320793 
L 262.101254 219.405486 
L 262.388273 219.405486 
L 262.388273 220.252414 
L 263.105821 220.337107 
L 263.105821 220.591185 
L 263.53635 220.675878 
L 263.53635 220.760571 
L 263.823369 220.760571 
L 263.823369 220.929956 
L 264.397407 220.929956 
L 264.397407 221.099342 
L 265.688992 221.184035 
L 265.688992 221.268728 
L 266.40654 221.35342 
L 266.40654 221.522806 
L 266.693559 221.522806 
L 266.693559 221.94627 
L 266.837068 221.94627 
L 266.837068 222.285041 
L 267.124087 222.369734 
L 267.124087 222.454427 
L 267.841635 222.53912 
L 267.841635 222.708506 
L 268.415673 222.793198 
L 268.415673 222.877891 
L 268.846201 222.962584 
L 268.846201 223.047277 
L 269.707258 223.13197 
L 269.707258 223.216662 
L 270.568316 223.301355 
L 270.568316 223.470741 
L 270.855335 223.470741 
L 270.855335 223.724819 
L 271.142354 223.809512 
L 271.142354 224.741133 
L 271.285863 224.741133 
L 271.285863 225.079904 
L 271.859901 225.079904 
L 271.859901 225.24929 
L 272.577449 225.333983 
L 272.577449 225.418676 
L 273.151487 225.503368 
L 273.151487 225.588061 
L 274.156053 225.672754 
L 274.156053 225.757447 
L 274.873601 225.757447 
L 274.873601 225.926833 
L 275.304129 225.926833 
L 275.304129 226.096218 
L 275.591148 226.096218 
L 275.591148 226.773761 
L 276.739224 226.858454 
L 276.739224 226.943146 
L 277.313263 227.027839 
L 277.313263 227.112532 
L 277.600282 227.197225 
L 277.600282 227.281918 
L 279.035377 227.36661 
L 279.035377 227.535996 
L 279.752924 227.620689 
L 279.752924 227.874767 
L 279.896434 227.874767 
L 279.896434 228.213539 
L 280.039943 228.213539 
L 280.039943 228.467617 
L 280.183453 228.467617 
L 280.183453 228.637003 
L 280.613981 228.637003 
L 280.613981 228.891081 
L 280.901 228.891081 
L 280.901 229.060467 
L 281.618548 229.14516 
L 281.618548 229.229852 
L 282.192586 229.314545 
L 282.192586 229.399238 
L 283.053643 229.483931 
L 283.053643 229.653317 
L 283.484171 229.738009 
L 283.484171 229.822702 
L 283.9147 229.822702 
L 283.9147 229.992088 
L 284.058209 229.992088 
L 284.058209 230.330859 
L 284.345228 230.415552 
L 284.345228 231.093094 
L 284.632248 231.177787 
L 284.632248 231.26248 
L 286.497871 231.347173 
L 286.497871 231.431866 
L 286.9284 231.516559 
L 286.9284 231.601251 
L 287.789457 231.685944 
L 287.789457 231.85533 
L 288.363495 231.940023 
L 288.363495 232.278794 
L 288.650514 232.363487 
L 288.650514 232.617565 
L 288.794023 232.617565 
L 288.794023 233.041029 
L 290.803156 233.125722 
L 290.803156 233.210415 
L 292.238252 233.295108 
L 292.238252 233.3798 
L 292.525271 233.464493 
L 292.525271 233.549186 
L 292.81229 233.633879 
L 292.81229 234.057343 
L 293.099309 234.057343 
L 293.099309 234.311421 
L 293.242818 234.311421 
L 293.242818 234.480807 
L 293.816856 234.5655 
L 293.816856 234.650193 
L 294.247385 234.734886 
L 294.247385 234.819578 
L 295.395461 234.819578 
L 295.395461 234.988964 
L 296.400027 235.073657 
L 296.400027 235.243042 
L 296.543537 235.243042 
L 296.543537 235.412428 
L 297.117575 235.497121 
L 297.117575 235.751199 
L 297.261084 235.751199 
L 297.261084 236.174663 
L 297.404594 236.174663 
L 297.404594 236.428742 
L 297.548103 236.428742 
L 297.548103 236.598128 
L 298.696179 236.68282 
L 298.696179 236.767513 
L 298.839689 236.767513 
L 298.839689 236.936899 
L 298.983198 236.936899 
L 298.983198 237.190977 
L 299.987765 237.27567 
L 299.987765 237.445056 
L 300.274784 237.445056 
L 300.274784 237.614441 
L 300.561803 237.699134 
L 300.561803 237.783827 
L 301.135841 237.86852 
L 301.135841 237.953213 
L 301.56637 237.953213 
L 301.56637 238.207291 
L 301.853389 238.291984 
L 301.853389 238.630755 
L 302.570936 238.630755 
L 302.570936 238.800141 
L 304.006031 238.884834 
L 304.006031 238.969526 
L 305.154107 239.054219 
L 305.154107 239.138912 
L 305.297617 239.138912 
L 305.297617 239.308298 
L 306.158674 239.392991 
L 306.158674 239.731762 
L 306.302183 239.731762 
L 306.302183 239.901147 
L 307.30675 239.98584 
L 307.30675 240.070533 
L 307.737279 240.155226 
L 307.737279 240.239919 
L 308.024298 240.324612 
L 308.024298 240.409304 
L 308.454826 240.493997 
L 308.454826 240.57869 
L 309.028864 240.663383 
L 309.028864 240.748076 
L 310.32045 240.832768 
L 310.32045 241.086847 
L 310.463959 241.086847 
L 310.463959 241.425618 
L 311.037997 241.510311 
L 311.037997 241.595004 
L 312.760111 241.679697 
L 312.760111 241.764389 
L 313.621168 241.849082 
L 313.621168 241.933775 
L 313.908187 242.018468 
L 313.908187 242.103161 
L 313.908187 242.103161 
" clip-path="url(#p5f76a44ece)" style="fill: none; stroke: #efc000; stroke-width: 1.5; stroke-linecap: square"/>
   </g>
   <g id="LineCollection_3">
    <path d="M 52.72088 131.070877 
L 166.380411 131.070877 
" clip-path="url(#p5f76a44ece)" style="fill: none; stroke-dasharray: 2.96,1.28; stroke-dashoffset: 0; stroke: #efc000; stroke-opacity: 0.5; stroke-width: 0.8"/>
   </g>
   <g id="LineCollection_4">
    <path d="M 166.380411 242.103161 
L 166.380411 131.070877 
" clip-path="url(#p5f76a44ece)" style="fill: none; stroke-dasharray: 2.96,1.28; stroke-dashoffset: 0; stroke: #efc000; stroke-opacity: 0.5; stroke-width: 0.8"/>
   </g>
   <g id="patch_3">
    <path d="M 39.632813 242.103161 
L 39.632813 20.038594 
" style="fill: none; stroke: #000000; stroke-width: 0.8; stroke-linejoin: miter; stroke-linecap: square"/>
   </g>
   <g id="patch_4">
    <path d="M 39.632813 242.103161 
L 327.570293 242.103161 
" style="fill: none; stroke: #000000; stroke-width: 0.8; stroke-linejoin: miter; stroke-linecap: square"/>
   </g>
   <g id="text_17">
    <!-- p &lt; 0.001 -->
    <g transform="translate(267.985144 121.899211) scale(0.07 -0.07)">
     <defs>
      <path id="DejaVuSans-3c" d="M 4684 3150 
L 1459 2003 
L 4684 863 
L 4684 294 
L 678 1747 
L 678 2266 
L 4684 3719 
L 4684 3150 
z
" transform="scale(0.015625)"/>
     </defs>
     <use xlink:href="#DejaVuSans-70"/>
     <use xlink:href="#DejaVuSans-20" transform="translate(63.476562 0)"/>
     <use xlink:href="#DejaVuSans-3c" transform="translate(95.263672 0)"/>
     <use xlink:href="#DejaVuSans-20" transform="translate(179.052734 0)"/>
     <use xlink:href="#DejaVuSans-30" transform="translate(210.839844 0)"/>
     <use xlink:href="#DejaVuSans-2e" transform="translate(274.462891 0)"/>
     <use xlink:href="#DejaVuSans-30" transform="translate(306.25 0)"/>
     <use xlink:href="#DejaVuSans-30" transform="translate(369.873047 0)"/>
     <use xlink:href="#DejaVuSans-31" transform="translate(433.496094 0)"/>
    </g>
   </g>
   <g id="text_18">
    <!-- has_dmc -->
    <g transform="translate(163.683428 14.038594) scale(0.09 -0.09)">
     <defs>
      <path id="DejaVuSans-68" d="M 3513 2113 
L 3513 0 
L 2938 0 
L 2938 2094 
Q 2938 2591 2744 2837 
Q 2550 3084 2163 3084 
Q 1697 3084 1428 2787 
Q 1159 2491 1159 1978 
L 1159 0 
L 581 0 
L 581 4863 
L 1159 4863 
L 1159 2956 
Q 1366 3272 1645 3428 
Q 1925 3584 2291 3584 
Q 2894 3584 3203 3211 
Q 3513 2838 3513 2113 
z
" transform="scale(0.015625)"/>
      <path id="DejaVuSans-5f" d="M 3263 -1063 
L 3263 -1509 
L -63 -1509 
L -63 -1063 
L 3263 -1063 
z
" transform="scale(0.015625)"/>
      <path id="DejaVuSans-63" d="M 3122 3366 
L 3122 2828 
Q 2878 2963 2633 3030 
Q 2388 3097 2138 3097 
Q 1578 3097 1268 2742 
Q 959 2388 959 1747 
Q 959 1106 1268 751 
Q 1578 397 2138 397 
Q 2388 397 2633 464 
Q 2878 531 3122 666 
L 3122 134 
Q 2881 22 2623 -34 
Q 2366 -91 2075 -91 
Q 1284 -91 818 406 
Q 353 903 353 1747 
Q 353 2603 823 3093 
Q 1294 3584 2113 3584 
Q 2378 3584 2631 3529 
Q 2884 3475 3122 3366 
z
" transform="scale(0.015625)"/>
     </defs>
     <use xlink:href="#DejaVuSans-68"/>
     <use xlink:href="#DejaVuSans-61" transform="translate(63.378906 0)"/>
     <use xlink:href="#DejaVuSans-73" transform="translate(124.658203 0)"/>
     <use xlink:href="#DejaVuSans-5f" transform="translate(176.757812 0)"/>
     <use xlink:href="#DejaVuSans-64" transform="translate(226.757812 0)"/>
     <use xlink:href="#DejaVuSans-6d" transform="translate(290.234375 0)"/>
     <use xlink:href="#DejaVuSans-63" transform="translate(387.646484 0)"/>
    </g>
   </g>
   <g id="legend_1">
    <g id="patch_5">
     <path d="M 219.348578 95.042173 
L 259.324047 95.042173 
Q 260.724047 95.042173 260.724047 93.642173 
L 260.724047 73.792798 
Q 260.724047 72.392798 259.324047 72.392798 
L 219.348578 72.392798 
Q 217.948578 72.392798 217.948578 73.792798 
L 217.948578 93.642173 
Q 217.948578 95.042173 219.348578 95.042173 
z
" style="fill: #ffffff; opacity: 0.8; stroke: #cccccc; stroke-linejoin: miter"/>
    </g>
    <g id="line2d_17">
     <path d="M 220.748578 78.061705 
L 227.748578 78.061705 
L 227.748578 78.061705 
L 234.748578 78.061705 
L 234.748578 78.061705 
" style="fill: none; stroke: #0073c2; stroke-width: 1.5; stroke-linecap: square"/>
    </g>
    <g id="text_19">
     <!-- False -->
     <g transform="translate(240.348578 80.511705) scale(0.07 -0.07)">
      <defs>
       <path id="DejaVuSans-46" d="M 628 4666 
L 3309 4666 
L 3309 4134 
L 1259 4134 
L 1259 2759 
L 3109 2759 
L 3109 2228 
L 1259 2228 
L 1259 0 
L 628 0 
L 628 4666 
z
" transform="scale(0.015625)"/>
      </defs>
      <use xlink:href="#DejaVuSans-46"/>
      <use xlink:href="#DejaVuSans-61" transform="translate(48.394531 0)"/>
      <use xlink:href="#DejaVuSans-6c" transform="translate(109.673828 0)"/>
      <use xlink:href="#DejaVuSans-73" transform="translate(137.457031 0)"/>
      <use xlink:href="#DejaVuSans-65" transform="translate(189.556641 0)"/>
     </g>
    </g>
    <g id="line2d_18">
     <path d="M 220.748578 88.336392 
L 227.748578 88.336392 
L 227.748578 88.336392 
L 234.748578 88.336392 
L 234.748578 88.336392 
" style="fill: none; stroke: #efc000; stroke-width: 1.5; stroke-linecap: square"/>
    </g>
    <g id="text_20">
     <!-- True -->
     <g transform="translate(240.348578 90.786392) scale(0.07 -0.07)">
      <use xlink:href="#DejaVuSans-54"/>
      <use xlink:href="#DejaVuSans-72" transform="translate(46.333984 0)"/>
      <use xlink:href="#DejaVuSans-75" transform="translate(87.447266 0)"/>
      <use xlink:href="#DejaVuSans-65" transform="translate(150.826172 0)"/>
     </g>
    </g>
   </g>
  </g>
 </g>
 <defs>
  <clipPath id="p5f76a44ece">
   <rect x="39.632813" y="20.038594" width="287.93748" height="222.064567"/>
  </clipPath>
 </defs>
</svg>
